<svg width="288" height="106" viewBox="0 0 288 106" fill="none" xmlns="http://www.w3.org/2000/svg">
<path d="M86.0496 71.2324H39.7936C39.6443 71.2324 39.5696 71.0084 39.5696 70.5604C39.5696 70.1124 39.6443 69.8884 39.7936 69.8884C42.6309 69.8884 44.7589 69.7018 46.1776 69.3284C47.5963 68.9551 48.5296 68.2084 48.9776 67.0884C49.5003 65.9684 49.7616 64.3258 49.7616 62.1604V10.3044C49.7616 8.13909 49.5003 6.53375 48.9776 5.48842C48.5296 4.36842 47.5963 3.62175 46.1776 3.24842C44.7589 2.80042 42.6309 2.57642 39.7936 2.57642C39.6443 2.57642 39.5696 2.35242 39.5696 1.90442C39.5696 1.45642 39.6443 1.23242 39.7936 1.23242H84.1456C84.8176 1.23242 85.1536 1.56842 85.1536 2.24042L85.3776 15.7924C85.3776 16.0164 85.1536 16.1284 84.7056 16.1284C84.3323 16.1284 84.1456 16.0164 84.1456 15.7924C84.1456 11.9098 83.1376 8.88575 81.1216 6.72042C79.1056 4.48042 76.4549 3.36042 73.1696 3.36042H65.4416C62.6789 3.36042 60.5883 3.54709 59.1696 3.92042C57.8256 4.29375 56.8923 5.04042 56.3696 6.16042C55.9216 7.20575 55.6976 8.81108 55.6976 10.9764V61.7124C55.6976 63.8031 55.9216 65.3711 56.3696 66.4164C56.8923 67.4618 57.8256 68.1711 59.1696 68.5444C60.5883 68.9178 62.6789 69.1044 65.4416 69.1044H75.7456C78.7323 69.1044 81.3083 67.7978 83.4736 65.1844C85.6389 62.5711 86.9829 59.1364 87.5056 54.8804C87.5056 54.6564 87.7296 54.5818 88.1776 54.6564C88.6256 54.6564 88.8496 54.7684 88.8496 54.9924C88.5509 56.9338 88.2896 59.2858 88.0656 62.0484C87.9163 64.7364 87.8416 67.2378 87.8416 69.5524C87.8416 70.6724 87.2443 71.2324 86.0496 71.2324ZM79.7776 44.9124C79.7776 41.5524 79.0683 39.2004 77.6496 37.8564C76.2309 36.5124 73.7296 35.8404 70.1456 35.8404H52.8976V33.7124H70.4816C73.9163 33.7124 76.3056 33.1524 77.6496 32.0324C78.9936 30.8378 79.6656 28.8218 79.6656 25.9844C79.6656 25.8351 79.8896 25.7604 80.3376 25.7604C80.7856 25.7604 81.0096 25.8351 81.0096 25.9844C81.0096 28.1498 80.9723 29.8298 80.8976 31.0244C80.8976 32.2191 80.8976 33.4884 80.8976 34.8324C80.8976 36.4751 80.9349 38.1178 81.0096 39.7604C81.0843 41.3284 81.1216 43.0458 81.1216 44.9124C81.1216 45.0618 80.8976 45.1364 80.4496 45.1364C80.0016 45.1364 79.7776 45.0618 79.7776 44.9124ZM136.92 10.4164V61.7124C136.92 63.8031 137.144 65.3711 137.592 66.4164C138.115 67.4618 139.048 68.1711 140.392 68.5444C141.811 68.9178 143.864 69.1044 146.552 69.1044H160.888C164.846 69.1044 167.87 67.7978 169.96 65.1844C172.051 62.5711 173.395 59.1364 173.992 54.8804C173.992 54.6564 174.179 54.5818 174.552 54.6564C175 54.6564 175.224 54.7684 175.224 54.9924C175 56.9338 174.776 59.2858 174.552 62.0484C174.328 64.7364 174.216 67.2378 174.216 69.5524C174.216 70.6724 173.656 71.2324 172.536 71.2324H121.016C120.867 71.2324 120.792 71.0084 120.792 70.5604C120.792 70.1124 120.867 69.8884 121.016 69.8884C123.854 69.8884 125.982 69.7018 127.4 69.3284C128.819 68.9551 129.752 68.2084 130.2 67.0884C130.723 65.9684 130.984 64.3258 130.984 62.1604V10.3044C130.984 8.13909 130.723 6.53375 130.2 5.48842C129.752 4.36842 128.819 3.62175 127.4 3.24842C125.982 2.80042 123.854 2.57642 121.016 2.57642C120.867 2.57642 120.792 2.35242 120.792 1.90442C120.792 1.45642 120.867 1.23242 121.016 1.23242C122.808 1.23242 124.787 1.30709 126.952 1.45642C129.192 1.53108 131.507 1.56842 133.896 1.56842C136.435 1.56842 138.787 1.53108 140.952 1.45642C143.192 1.30709 145.171 1.23242 146.888 1.23242C147.038 1.23242 147.112 1.45642 147.112 1.90442C147.112 2.35242 147.038 2.57642 146.888 2.57642C144.051 2.57642 141.923 2.80042 140.504 3.24842C139.086 3.62175 138.115 4.36842 137.592 5.48842C137.144 6.60842 136.92 8.25108 136.92 10.4164ZM214.231 14.7844C214.231 17.9204 214.978 20.6084 216.471 22.8484C218.039 25.0138 220.018 26.9178 222.407 28.5604C224.871 30.2031 227.447 31.8084 230.135 33.3764C232.898 34.9444 235.548 36.6244 238.087 38.4164C240.626 40.1338 242.716 42.2244 244.359 44.6884C246.076 47.0778 246.935 50.0644 246.935 53.6484C246.935 57.0831 246.076 60.2564 244.359 63.1684C242.716 66.0058 240.215 68.2831 236.855 70.0004C233.495 71.7178 229.276 72.5764 224.199 72.5764C222.556 72.5764 220.914 72.4644 219.271 72.2404C217.703 72.0164 216.06 71.6431 214.343 71.1204C212.7 70.5231 210.908 69.7391 208.967 68.7684C208.594 68.5444 208.332 68.2831 208.183 67.9844C208.108 67.6111 208.034 67.1631 207.959 66.6404L206.279 52.0804C206.204 51.7071 206.354 51.5204 206.727 51.5204C207.175 51.4458 207.436 51.5578 207.511 51.8564C207.81 54.0964 208.407 56.3364 209.303 58.5764C210.199 60.8164 211.394 62.8698 212.887 64.7364C214.455 66.6031 216.359 68.1338 218.599 69.3284C220.914 70.4484 223.602 71.0084 226.663 71.0084C228.978 71.0084 231.218 70.5978 233.383 69.7764C235.548 68.8804 237.303 67.4618 238.647 65.5204C240.066 63.5791 240.775 60.9284 240.775 57.5684C240.775 53.9098 239.954 50.8858 238.311 48.4964C236.743 46.0324 234.727 43.9418 232.263 42.2244C229.799 40.4324 227.186 38.7524 224.423 37.1844C221.81 35.6164 219.271 33.9738 216.807 32.2564C214.343 30.5391 212.327 28.5231 210.759 26.2084C209.266 23.8191 208.519 20.8698 208.519 17.3604C208.519 13.4777 209.49 10.2671 211.431 7.72842C213.372 5.11508 215.874 3.17375 218.935 1.90442C222.071 0.635085 225.319 0.000417709 228.679 0.000417709C230.62 0.000417709 232.636 0.224417 234.727 0.672416C236.892 1.04575 239.132 1.71775 241.447 2.68842C242.044 2.91242 242.455 3.21109 242.679 3.58442C242.978 3.88309 243.127 4.21909 243.127 4.59242L244.135 16.4644C244.135 16.7631 243.911 16.9124 243.463 16.9124C243.09 16.9124 242.866 16.7631 242.791 16.4644C242.642 14.8218 242.231 13.1418 241.559 11.4244C240.962 9.63242 240.028 7.98975 238.759 6.49642C237.564 5.00308 235.996 3.80842 234.055 2.91242C232.188 1.94175 229.911 1.45642 227.223 1.45642C224.012 1.45642 221.436 2.12842 219.495 3.47242C217.628 4.81642 216.284 6.49642 215.463 8.51242C214.642 10.5284 214.231 12.6191 214.231 14.7844Z" fill="#F5F0EA"/>
<path d="M20.1041 103.617C20.1041 103.997 20.1548 104.289 20.2561 104.491C20.3701 104.681 20.5981 104.814 20.9401 104.89C21.2821 104.966 21.7951 105.004 22.4791 105.004C22.5171 105.004 22.5361 105.042 22.5361 105.118C22.5361 105.194 22.5171 105.232 22.4791 105.232C22.0738 105.232 21.6304 105.226 21.1491 105.213C20.6804 105.201 20.1674 105.194 19.6101 105.194C19.2048 105.194 18.8121 105.201 18.4321 105.213C18.0521 105.226 17.7101 105.232 17.4061 105.232C17.3808 105.232 17.3681 105.194 17.3681 105.118C17.3681 105.042 17.3808 105.004 17.4061 105.004C17.8874 105.004 18.2484 104.973 18.4891 104.909C18.7298 104.846 18.8881 104.719 18.9641 104.529C19.0528 104.339 19.0971 104.061 19.0971 103.693V94.8964C19.0971 94.5291 19.0528 94.2568 18.9641 94.0794C18.8881 93.8894 18.7298 93.7628 18.4891 93.6994C18.2484 93.6234 17.8874 93.5854 17.4061 93.5854C17.3808 93.5854 17.3681 93.5474 17.3681 93.4714C17.3681 93.3954 17.3808 93.3574 17.4061 93.3574C17.7101 93.3574 18.0458 93.3701 18.4131 93.3954C18.7931 93.4081 19.1858 93.4144 19.5911 93.4144C19.9204 93.4144 20.3194 93.3954 20.7881 93.3574C21.2568 93.3194 21.7444 93.3004 22.2511 93.3004C22.9478 93.3004 23.5811 93.4081 24.1511 93.6234C24.7211 93.8388 25.1708 94.1744 25.5001 94.6304C25.8421 95.0864 26.0131 95.6818 26.0131 96.4164C26.0131 97.0878 25.8864 97.6641 25.6331 98.1454C25.3798 98.6268 25.0441 99.0258 24.6261 99.3424C24.2208 99.6464 23.7711 99.8744 23.2771 100.026C22.7831 100.178 22.2954 100.254 21.8141 100.254C21.6494 100.254 21.4848 100.248 21.3201 100.235C21.1681 100.223 21.0224 100.197 20.8831 100.159C20.8324 100.147 20.8134 100.102 20.8261 100.026C20.8514 99.9378 20.8831 99.8998 20.9211 99.9124C21.0351 99.9378 21.1491 99.9568 21.2631 99.9694C21.3898 99.9821 21.5038 99.9884 21.6051 99.9884C22.1624 99.9884 22.6881 99.8744 23.1821 99.6464C23.6761 99.4184 24.0751 99.0701 24.3791 98.6014C24.6831 98.1201 24.8351 97.5184 24.8351 96.7964C24.8351 96.0998 24.6958 95.5108 24.4171 95.0294C24.1511 94.5481 23.7901 94.1808 23.3341 93.9274C22.8781 93.6741 22.3714 93.5474 21.8141 93.5474C21.3581 93.5474 21.0034 93.5728 20.7501 93.6234C20.5094 93.6614 20.3384 93.7754 20.2371 93.9654C20.1484 94.1554 20.1041 94.4784 20.1041 94.9344V103.617ZM41.2708 105.232C41.0555 105.232 40.7008 104.985 40.2068 104.491C39.7128 103.997 39.1175 103.294 38.4208 102.382C37.7242 101.458 36.9452 100.368 36.0838 99.1144L36.9958 98.8294C38.0852 100.362 39.0098 101.584 39.7698 102.496C40.5298 103.396 41.2012 104.042 41.7838 104.434C42.3665 104.814 42.9302 105.004 43.4748 105.004C43.5128 105.004 43.5318 105.042 43.5318 105.118C43.5318 105.194 43.5128 105.232 43.4748 105.232C42.9048 105.232 42.4362 105.232 42.0688 105.232C41.7142 105.232 41.4482 105.232 41.2708 105.232ZM36.3118 93.3004C37.2872 93.3004 38.0282 93.5348 38.5348 94.0034C39.0542 94.4721 39.3138 95.0801 39.3138 95.8274C39.3138 96.4988 39.1175 97.1068 38.7248 97.6514C38.3322 98.1961 37.8065 98.6268 37.1478 98.9434C36.5018 99.2601 35.7862 99.4184 35.0008 99.4184C34.8868 99.4184 34.7538 99.4121 34.6018 99.3994C34.4498 99.3868 34.3105 99.3741 34.1838 99.3614V103.693C34.1838 104.061 34.2218 104.339 34.2978 104.529C34.3738 104.719 34.5322 104.846 34.7728 104.909C35.0262 104.973 35.3935 105.004 35.8748 105.004C35.9128 105.004 35.9318 105.042 35.9318 105.118C35.9318 105.194 35.9128 105.232 35.8748 105.232C35.5708 105.232 35.2352 105.226 34.8678 105.213C34.5132 105.201 34.1142 105.194 33.6708 105.194C33.2655 105.194 32.8728 105.201 32.4928 105.213C32.1128 105.226 31.7708 105.232 31.4668 105.232C31.4415 105.232 31.4288 105.194 31.4288 105.118C31.4288 105.042 31.4415 105.004 31.4668 105.004C31.9482 105.004 32.3092 104.973 32.5498 104.909C32.8032 104.846 32.9742 104.719 33.0628 104.529C33.1515 104.339 33.1958 104.061 33.1958 103.693V94.8964C33.1958 94.5291 33.1515 94.2568 33.0628 94.0794C32.9868 93.8894 32.8285 93.7628 32.5878 93.6994C32.3472 93.6234 31.9862 93.5854 31.5048 93.5854C31.4668 93.5854 31.4478 93.5474 31.4478 93.4714C31.4478 93.3954 31.4668 93.3574 31.5048 93.3574C31.7962 93.3574 32.1255 93.3701 32.4928 93.3954C32.8728 93.4081 33.2655 93.4144 33.6708 93.4144C34.0635 93.4144 34.5195 93.3954 35.0388 93.3574C35.5582 93.3194 35.9825 93.3004 36.3118 93.3004ZM38.2498 96.3404C38.2498 95.6564 38.1358 95.1118 37.9078 94.7064C37.6925 94.3011 37.3758 94.0098 36.9578 93.8324C36.5525 93.6424 36.0585 93.5474 35.4758 93.5474C35.0198 93.5474 34.6905 93.6298 34.4878 93.7944C34.2852 93.9591 34.1838 94.3391 34.1838 94.9344V98.9244C34.3612 98.9371 34.5512 98.9498 34.7538 98.9624C34.9692 98.9751 35.1592 98.9814 35.3238 98.9814C36.4132 98.9814 37.1732 98.7534 37.6038 98.2974C38.0345 97.8414 38.2498 97.1891 38.2498 96.3404ZM55.7867 105.232H47.9397C47.9144 105.232 47.9017 105.194 47.9017 105.118C47.9017 105.042 47.9144 105.004 47.9397 105.004C48.421 105.004 48.782 104.973 49.0227 104.909C49.2634 104.846 49.4217 104.719 49.4977 104.529C49.5864 104.339 49.6307 104.061 49.6307 103.693V94.8964C49.6307 94.5291 49.5864 94.2568 49.4977 94.0794C49.4217 93.8894 49.2634 93.7628 49.0227 93.6994C48.782 93.6234 48.421 93.5854 47.9397 93.5854C47.9144 93.5854 47.9017 93.5474 47.9017 93.4714C47.9017 93.3954 47.9144 93.3574 47.9397 93.3574H55.4637C55.5777 93.3574 55.6347 93.4144 55.6347 93.5284L55.6727 95.8274C55.6727 95.8654 55.6347 95.8844 55.5587 95.8844C55.4954 95.8844 55.4637 95.8654 55.4637 95.8274C55.4637 95.1688 55.2927 94.6558 54.9507 94.2884C54.6087 93.9084 54.159 93.7184 53.6017 93.7184H52.2907C51.822 93.7184 51.4674 93.7501 51.2267 93.8134C50.9987 93.8768 50.8404 94.0034 50.7517 94.1934C50.6757 94.3708 50.6377 94.6431 50.6377 95.0104V103.617C50.6377 103.972 50.6757 104.238 50.7517 104.415C50.8404 104.593 50.9987 104.713 51.2267 104.776C51.4674 104.84 51.822 104.871 52.2907 104.871H54.0387C54.5454 104.871 54.9824 104.65 55.3497 104.206C55.717 103.763 55.945 103.18 56.0337 102.458C56.0337 102.42 56.0717 102.408 56.1477 102.42C56.2237 102.42 56.2617 102.439 56.2617 102.477C56.211 102.807 56.1667 103.206 56.1287 103.674C56.1034 104.13 56.0907 104.555 56.0907 104.947C56.0907 105.137 55.9894 105.232 55.7867 105.232ZM54.7227 100.767C54.7227 100.197 54.6024 99.7984 54.3617 99.5704C54.121 99.3424 53.6967 99.2284 53.0887 99.2284H50.1627V98.8674H53.1457C53.7284 98.8674 54.1337 98.7724 54.3617 98.5824C54.5897 98.3798 54.7037 98.0378 54.7037 97.5564C54.7037 97.5311 54.7417 97.5184 54.8177 97.5184C54.8937 97.5184 54.9317 97.5311 54.9317 97.5564C54.9317 97.9238 54.9254 98.2088 54.9127 98.4114C54.9127 98.6141 54.9127 98.8294 54.9127 99.0574C54.9127 99.3361 54.919 99.6148 54.9317 99.8934C54.9444 100.159 54.9507 100.451 54.9507 100.767C54.9507 100.793 54.9127 100.805 54.8367 100.805C54.7607 100.805 54.7227 100.793 54.7227 100.767ZM63.3146 103.256L63.5046 93.7944L63.9226 93.8324L63.7516 103.256C63.7389 103.902 63.8402 104.358 64.0556 104.624C64.2836 104.878 64.7142 105.004 65.3476 105.004C65.3729 105.004 65.3856 105.042 65.3856 105.118C65.3856 105.194 65.3729 105.232 65.3476 105.232C65.0689 105.232 64.7776 105.226 64.4736 105.213C64.1822 105.201 63.8592 105.194 63.5046 105.194C63.2006 105.194 62.9092 105.201 62.6306 105.213C62.3519 105.226 62.0859 105.232 61.8326 105.232C61.8072 105.232 61.7946 105.194 61.7946 105.118C61.7946 105.042 61.8072 105.004 61.8326 105.004C62.3646 105.004 62.7382 104.878 62.9536 104.624C63.1816 104.358 63.3019 103.902 63.3146 103.256ZM76.3676 105.004C76.4056 105.004 76.4246 105.042 76.4246 105.118C76.4246 105.194 76.4056 105.232 76.3676 105.232C76.0636 105.232 75.7216 105.226 75.3416 105.213C74.9742 105.201 74.5816 105.194 74.1636 105.194C73.7709 105.194 73.4099 105.201 73.0806 105.213C72.7512 105.226 72.4536 105.232 72.1876 105.232C72.1622 105.232 72.1496 105.194 72.1496 105.118C72.1496 105.042 72.1622 105.004 72.1876 105.004C72.8209 105.004 73.2262 104.922 73.4036 104.757C73.5936 104.593 73.6759 104.238 73.6506 103.693L73.3086 94.3264L73.8596 93.6234L68.8816 105.099C68.8689 105.15 68.8182 105.175 68.7296 105.175C68.6409 105.175 68.5839 105.15 68.5586 105.099L63.9226 94.9344C63.5172 94.0351 62.8649 93.5854 61.9656 93.5854C61.9402 93.5854 61.9276 93.5474 61.9276 93.4714C61.9276 93.3954 61.9402 93.3574 61.9656 93.3574C62.1556 93.3574 62.3582 93.3638 62.5736 93.3764C62.7889 93.3891 62.9662 93.3954 63.1056 93.3954C63.2829 93.3954 63.4476 93.3891 63.5996 93.3764C63.7516 93.3638 63.8656 93.3574 63.9416 93.3574C64.1189 93.3574 64.2582 93.4144 64.3596 93.5284C64.4609 93.6424 64.6129 93.9148 64.8156 94.3454L69.1666 103.75L68.6726 104.548L73.3466 93.8324C73.4099 93.6931 73.4922 93.5791 73.5936 93.4904C73.7076 93.4018 73.8152 93.3574 73.9166 93.3574C73.9799 93.3574 74.0749 93.3638 74.2016 93.3764C74.3282 93.3891 74.4739 93.3954 74.6386 93.3954C74.9679 93.3954 75.2339 93.3891 75.4366 93.3764C75.6392 93.3638 75.8546 93.3574 76.0826 93.3574C76.1079 93.3574 76.1206 93.3954 76.1206 93.4714C76.1206 93.5474 76.1079 93.5854 76.0826 93.5854C75.4619 93.5854 75.0059 93.6678 74.7146 93.8324C74.4232 93.9844 74.2839 94.3264 74.2966 94.8584L74.6576 103.693C74.6702 104.061 74.7146 104.339 74.7906 104.529C74.8792 104.719 75.0439 104.846 75.2846 104.909C75.5252 104.973 75.8862 105.004 76.3676 105.004ZM84.254 103.693C84.254 104.061 84.292 104.339 84.368 104.529C84.444 104.719 84.6024 104.846 84.843 104.909C85.0964 104.973 85.4637 105.004 85.945 105.004C85.9704 105.004 85.983 105.042 85.983 105.118C85.983 105.194 85.9704 105.232 85.945 105.232C85.641 105.232 85.3054 105.226 84.938 105.213C84.5707 105.201 84.1654 105.194 83.722 105.194C83.304 105.194 82.905 105.201 82.525 105.213C82.1577 105.226 81.822 105.232 81.518 105.232C81.48 105.232 81.461 105.194 81.461 105.118C81.461 105.042 81.48 105.004 81.518 105.004C81.9994 105.004 82.3604 104.973 82.601 104.909C82.8544 104.846 83.019 104.719 83.095 104.529C83.1837 104.339 83.228 104.061 83.228 103.693V94.8964C83.228 94.5291 83.1837 94.2568 83.095 94.0794C83.019 93.8894 82.8544 93.7628 82.601 93.6994C82.3604 93.6234 81.9994 93.5854 81.518 93.5854C81.48 93.5854 81.461 93.5474 81.461 93.4714C81.461 93.3954 81.48 93.3574 81.518 93.3574C81.822 93.3574 82.1577 93.3701 82.525 93.3954C82.905 93.4081 83.304 93.4144 83.722 93.4144C84.1654 93.4144 84.5707 93.4081 84.938 93.3954C85.318 93.3701 85.6537 93.3574 85.945 93.3574C85.9704 93.3574 85.983 93.3954 85.983 93.4714C85.983 93.5474 85.9704 93.5854 85.945 93.5854C85.4637 93.5854 85.1027 93.6234 84.862 93.6994C84.6214 93.7754 84.4567 93.9084 84.368 94.0984C84.292 94.2884 84.254 94.5671 84.254 94.9344V103.693ZM99.3605 105.232H91.5135C91.4882 105.232 91.4755 105.194 91.4755 105.118C91.4755 105.042 91.4882 105.004 91.5135 105.004C91.9949 105.004 92.3559 104.973 92.5965 104.909C92.8372 104.846 92.9955 104.719 93.0715 104.529C93.1602 104.339 93.2045 104.061 93.2045 103.693V94.8964C93.2045 94.5291 93.1602 94.2568 93.0715 94.0794C92.9955 93.8894 92.8372 93.7628 92.5965 93.6994C92.3559 93.6234 91.9949 93.5854 91.5135 93.5854C91.4882 93.5854 91.4755 93.5474 91.4755 93.4714C91.4755 93.3954 91.4882 93.3574 91.5135 93.3574H99.0375C99.1515 93.3574 99.2085 93.4144 99.2085 93.5284L99.2465 95.8274C99.2465 95.8654 99.2085 95.8844 99.1325 95.8844C99.0692 95.8844 99.0375 95.8654 99.0375 95.8274C99.0375 95.1688 98.8665 94.6558 98.5245 94.2884C98.1825 93.9084 97.7329 93.7184 97.1755 93.7184H95.8645C95.3959 93.7184 95.0412 93.7501 94.8005 93.8134C94.5725 93.8768 94.4142 94.0034 94.3255 94.1934C94.2495 94.3708 94.2115 94.6431 94.2115 95.0104V103.617C94.2115 103.972 94.2495 104.238 94.3255 104.415C94.4142 104.593 94.5725 104.713 94.8005 104.776C95.0412 104.84 95.3959 104.871 95.8645 104.871H97.6125C98.1192 104.871 98.5562 104.65 98.9235 104.206C99.2909 103.763 99.5189 103.18 99.6075 102.458C99.6075 102.42 99.6455 102.408 99.7215 102.42C99.7975 102.42 99.8355 102.439 99.8355 102.477C99.7849 102.807 99.7405 103.206 99.7025 103.674C99.6772 104.13 99.6645 104.555 99.6645 104.947C99.6645 105.137 99.5632 105.232 99.3605 105.232ZM98.2965 100.767C98.2965 100.197 98.1762 99.7984 97.9355 99.5704C97.6949 99.3424 97.2705 99.2284 96.6625 99.2284H93.7365V98.8674H96.7195C97.3022 98.8674 97.7075 98.7724 97.9355 98.5824C98.1635 98.3798 98.2775 98.0378 98.2775 97.5564C98.2775 97.5311 98.3155 97.5184 98.3915 97.5184C98.4675 97.5184 98.5055 97.5311 98.5055 97.5564C98.5055 97.9238 98.4992 98.2088 98.4865 98.4114C98.4865 98.6141 98.4865 98.8294 98.4865 99.0574C98.4865 99.3361 98.4929 99.6148 98.5055 99.8934C98.5182 100.159 98.5245 100.451 98.5245 100.767C98.5245 100.793 98.4865 100.805 98.4105 100.805C98.3345 100.805 98.2965 100.793 98.2965 100.767ZM115.248 105.232C115.033 105.232 114.678 104.985 114.184 104.491C113.69 103.997 113.095 103.294 112.398 102.382C111.702 101.458 110.923 100.368 110.061 99.1144L110.973 98.8294C112.063 100.362 112.987 101.584 113.747 102.496C114.507 103.396 115.179 104.042 115.761 104.434C116.344 104.814 116.908 105.004 117.452 105.004C117.49 105.004 117.509 105.042 117.509 105.118C117.509 105.194 117.49 105.232 117.452 105.232C116.882 105.232 116.414 105.232 116.046 105.232C115.692 105.232 115.426 105.232 115.248 105.232ZM110.289 93.3004C111.265 93.3004 112.006 93.5348 112.512 94.0034C113.032 94.4721 113.291 95.0801 113.291 95.8274C113.291 96.4988 113.095 97.1068 112.702 97.6514C112.31 98.1961 111.784 98.6268 111.125 98.9434C110.479 99.2601 109.764 99.4184 108.978 99.4184C108.864 99.4184 108.731 99.4121 108.579 99.3994C108.427 99.3868 108.288 99.3741 108.161 99.3614V103.693C108.161 104.061 108.199 104.339 108.275 104.529C108.351 104.719 108.51 104.846 108.75 104.909C109.004 104.973 109.371 105.004 109.852 105.004C109.89 105.004 109.909 105.042 109.909 105.118C109.909 105.194 109.89 105.232 109.852 105.232C109.548 105.232 109.213 105.226 108.845 105.213C108.491 105.201 108.092 105.194 107.648 105.194C107.243 105.194 106.85 105.201 106.47 105.213C106.09 105.226 105.748 105.232 105.444 105.232C105.419 105.232 105.406 105.194 105.406 105.118C105.406 105.042 105.419 105.004 105.444 105.004C105.926 105.004 106.287 104.973 106.527 104.909C106.781 104.846 106.952 104.719 107.04 104.529C107.129 104.339 107.173 104.061 107.173 103.693V94.8964C107.173 94.5291 107.129 94.2568 107.04 94.0794C106.964 93.8894 106.806 93.7628 106.565 93.6994C106.325 93.6234 105.964 93.5854 105.482 93.5854C105.444 93.5854 105.425 93.5474 105.425 93.4714C105.425 93.3954 105.444 93.3574 105.482 93.3574C105.774 93.3574 106.103 93.3701 106.47 93.3954C106.85 93.4081 107.243 93.4144 107.648 93.4144C108.041 93.4144 108.497 93.3954 109.016 93.3574C109.536 93.3194 109.96 93.3004 110.289 93.3004ZM112.227 96.3404C112.227 95.6564 112.113 95.1118 111.885 94.7064C111.67 94.3011 111.353 94.0098 110.935 93.8324C110.53 93.6424 110.036 93.5474 109.453 93.5474C108.997 93.5474 108.668 93.6298 108.465 93.7944C108.263 93.9591 108.161 94.3391 108.161 94.9344V98.9244C108.339 98.9371 108.529 98.9498 108.731 98.9624C108.947 98.9751 109.137 98.9814 109.301 98.9814C110.391 98.9814 111.151 98.7534 111.581 98.2974C112.012 97.8414 112.227 97.1891 112.227 96.3404ZM132.868 103.617C132.868 103.997 132.919 104.289 133.02 104.491C133.134 104.681 133.362 104.814 133.704 104.89C134.046 104.966 134.559 105.004 135.243 105.004C135.281 105.004 135.3 105.042 135.3 105.118C135.3 105.194 135.281 105.232 135.243 105.232C134.838 105.232 134.395 105.226 133.913 105.213C133.445 105.201 132.932 105.194 132.374 105.194C131.969 105.194 131.576 105.201 131.196 105.213C130.816 105.226 130.474 105.232 130.17 105.232C130.145 105.232 130.132 105.194 130.132 105.118C130.132 105.042 130.145 105.004 130.17 105.004C130.652 105.004 131.013 104.973 131.253 104.909C131.494 104.846 131.652 104.719 131.728 104.529C131.817 104.339 131.861 104.061 131.861 103.693V94.8964C131.861 94.5291 131.817 94.2568 131.728 94.0794C131.652 93.8894 131.494 93.7628 131.253 93.6994C131.013 93.6234 130.652 93.5854 130.17 93.5854C130.145 93.5854 130.132 93.5474 130.132 93.4714C130.132 93.3954 130.145 93.3574 130.17 93.3574C130.474 93.3574 130.81 93.3701 131.177 93.3954C131.557 93.4081 131.95 93.4144 132.355 93.4144C132.685 93.4144 133.084 93.3954 133.552 93.3574C134.021 93.3194 134.509 93.3004 135.015 93.3004C135.712 93.3004 136.345 93.4081 136.915 93.6234C137.485 93.8388 137.935 94.1744 138.264 94.6304C138.606 95.0864 138.777 95.6818 138.777 96.4164C138.777 97.0878 138.651 97.6641 138.397 98.1454C138.144 98.6268 137.808 99.0258 137.39 99.3424C136.985 99.6464 136.535 99.8744 136.041 100.026C135.547 100.178 135.06 100.254 134.578 100.254C134.414 100.254 134.249 100.248 134.084 100.235C133.932 100.223 133.787 100.197 133.647 100.159C133.597 100.147 133.578 100.102 133.59 100.026C133.616 99.9378 133.647 99.8998 133.685 99.9124C133.799 99.9378 133.913 99.9568 134.027 99.9694C134.154 99.9821 134.268 99.9884 134.369 99.9884C134.927 99.9884 135.452 99.8744 135.946 99.6464C136.44 99.4184 136.839 99.0701 137.143 98.6014C137.447 98.1201 137.599 97.5184 137.599 96.7964C137.599 96.0998 137.46 95.5108 137.181 95.0294C136.915 94.5481 136.554 94.1808 136.098 93.9274C135.642 93.6741 135.136 93.5474 134.578 93.5474C134.122 93.5474 133.768 93.5728 133.514 93.6234C133.274 93.6614 133.103 93.7754 133.001 93.9654C132.913 94.1554 132.868 94.4784 132.868 94.9344V103.617ZM150.349 105.46C149.437 105.46 148.607 105.302 147.86 104.985C147.125 104.656 146.492 104.206 145.96 103.636C145.441 103.066 145.035 102.414 144.744 101.679C144.465 100.932 144.326 100.14 144.326 99.3044C144.326 98.2784 144.522 97.3791 144.915 96.6064C145.32 95.8338 145.852 95.1941 146.511 94.6874C147.17 94.1681 147.892 93.7818 148.677 93.5284C149.462 93.2751 150.241 93.1484 151.014 93.1484C151.951 93.1484 152.787 93.3194 153.522 93.6614C154.269 93.9908 154.903 94.4404 155.422 95.0104C155.941 95.5804 156.334 96.2264 156.6 96.9484C156.879 97.6704 157.018 98.4114 157.018 99.1714C157.018 100.058 156.841 100.881 156.486 101.641C156.131 102.401 155.644 103.066 155.023 103.636C154.415 104.206 153.706 104.656 152.895 104.985C152.097 105.302 151.248 105.46 150.349 105.46ZM151.033 105.08C151.92 105.08 152.724 104.878 153.446 104.472C154.168 104.054 154.738 103.446 155.156 102.648C155.587 101.838 155.802 100.856 155.802 99.7034C155.802 98.5001 155.568 97.4424 155.099 96.5304C154.643 95.6058 153.997 94.8838 153.161 94.3644C152.325 93.8324 151.343 93.5664 150.216 93.5664C148.747 93.5664 147.6 94.0224 146.777 94.9344C145.954 95.8464 145.542 97.0878 145.542 98.6584C145.542 99.5451 145.669 100.381 145.922 101.166C146.188 101.939 146.562 102.623 147.043 103.218C147.537 103.801 148.12 104.257 148.791 104.586C149.462 104.916 150.21 105.08 151.033 105.08ZM165.124 94.9154V103.617C165.124 103.972 165.162 104.238 165.238 104.415C165.327 104.593 165.485 104.713 165.713 104.776C165.954 104.84 166.302 104.871 166.758 104.871H169.19C169.861 104.871 170.374 104.65 170.729 104.206C171.084 103.763 171.312 103.18 171.413 102.458C171.413 102.42 171.445 102.408 171.508 102.42C171.584 102.42 171.622 102.439 171.622 102.477C171.584 102.807 171.546 103.206 171.508 103.674C171.47 104.13 171.451 104.555 171.451 104.947C171.451 105.137 171.356 105.232 171.166 105.232H162.426C162.401 105.232 162.388 105.194 162.388 105.118C162.388 105.042 162.401 105.004 162.426 105.004C162.907 105.004 163.268 104.973 163.509 104.909C163.75 104.846 163.908 104.719 163.984 104.529C164.073 104.339 164.117 104.061 164.117 103.693V94.8964C164.117 94.5291 164.073 94.2568 163.984 94.0794C163.908 93.8894 163.75 93.7628 163.509 93.6994C163.268 93.6234 162.907 93.5854 162.426 93.5854C162.401 93.5854 162.388 93.5474 162.388 93.4714C162.388 93.3954 162.401 93.3574 162.426 93.3574C162.73 93.3574 163.066 93.3701 163.433 93.3954C163.813 93.4081 164.206 93.4144 164.611 93.4144C165.042 93.4144 165.441 93.4081 165.808 93.3954C166.188 93.3701 166.524 93.3574 166.815 93.3574C166.84 93.3574 166.853 93.3954 166.853 93.4714C166.853 93.5474 166.84 93.5854 166.815 93.5854C166.334 93.5854 165.973 93.6234 165.732 93.6994C165.491 93.7628 165.327 93.8894 165.238 94.0794C165.162 94.2694 165.124 94.5481 165.124 94.9154ZM180.815 99.7224L183.779 95.2384C184.134 94.6811 184.26 94.2694 184.159 94.0034C184.058 93.7248 183.728 93.5854 183.171 93.5854C183.146 93.5854 183.133 93.5474 183.133 93.4714C183.133 93.3954 183.146 93.3574 183.171 93.3574C183.5 93.3574 183.817 93.3701 184.121 93.3954C184.425 93.4081 184.818 93.4144 185.299 93.4144C185.616 93.4144 185.869 93.4081 186.059 93.3954C186.262 93.3701 186.502 93.3574 186.781 93.3574C186.806 93.3574 186.819 93.3954 186.819 93.4714C186.819 93.5474 186.806 93.5854 186.781 93.5854C186.464 93.5854 186.154 93.6551 185.85 93.7944C185.546 93.9211 185.255 94.1111 184.976 94.3644C184.71 94.6178 184.457 94.9281 184.216 95.2954L181.119 99.9884L180.815 99.7224ZM180.834 100.083L177.281 94.9344C176.952 94.4404 176.629 94.0921 176.312 93.8894C175.995 93.6868 175.603 93.5854 175.134 93.5854C175.096 93.5854 175.077 93.5474 175.077 93.4714C175.077 93.3954 175.096 93.3574 175.134 93.3574C175.349 93.3574 175.577 93.3701 175.818 93.3954C176.071 93.4081 176.306 93.4144 176.521 93.4144C176.863 93.4144 177.18 93.4144 177.471 93.4144C177.775 93.4018 178.06 93.3891 178.326 93.3764C178.592 93.3638 178.833 93.3574 179.048 93.3574C179.073 93.3574 179.086 93.3954 179.086 93.4714C179.086 93.5474 179.073 93.5854 179.048 93.5854C178.529 93.5854 178.199 93.6424 178.06 93.7564C177.921 93.8704 177.952 94.0668 178.155 94.3454L181.537 99.2094L180.834 100.083ZM180.53 99.3424L181.537 99.1714V103.693C181.537 104.061 181.575 104.339 181.651 104.529C181.727 104.719 181.885 104.846 182.126 104.909C182.367 104.973 182.728 105.004 183.209 105.004C183.247 105.004 183.266 105.042 183.266 105.118C183.266 105.194 183.247 105.232 183.209 105.232C182.918 105.232 182.588 105.226 182.221 105.213C181.854 105.201 181.455 105.194 181.024 105.194C180.606 105.194 180.207 105.201 179.827 105.213C179.447 105.226 179.111 105.232 178.82 105.232C178.782 105.232 178.763 105.194 178.763 105.118C178.763 105.042 178.782 105.004 178.82 105.004C179.301 105.004 179.662 104.973 179.903 104.909C180.156 104.846 180.321 104.719 180.397 104.529C180.486 104.339 180.53 104.061 180.53 103.693V99.3424ZM197.689 93.1484C198.259 93.1484 198.747 93.1738 199.152 93.2244C199.57 93.2751 199.957 93.3638 200.311 93.4904C200.666 93.6044 201.04 93.7628 201.432 93.9654C201.508 94.0161 201.553 94.0604 201.565 94.0984C201.591 94.1238 201.61 94.2188 201.622 94.3834L201.85 96.5494C201.85 96.5748 201.812 96.6001 201.736 96.6254C201.673 96.6381 201.635 96.6191 201.622 96.5684C201.344 95.5171 200.881 94.7318 200.235 94.2124C199.602 93.6804 198.753 93.4144 197.689 93.4144C196.562 93.4144 195.58 93.6488 194.744 94.1174C193.908 94.5861 193.256 95.2511 192.787 96.1124C192.331 96.9738 192.103 97.9871 192.103 99.1524C192.103 99.9758 192.249 100.755 192.54 101.489C192.844 102.224 193.256 102.87 193.775 103.427C194.307 103.985 194.909 104.422 195.58 104.738C196.252 105.055 196.967 105.213 197.727 105.213C198.817 105.213 199.691 104.954 200.349 104.434C201.008 103.902 201.477 103.13 201.755 102.116C201.768 102.078 201.806 102.066 201.869 102.078C201.945 102.091 201.983 102.11 201.983 102.135L201.831 104.149C201.819 104.301 201.8 104.396 201.774 104.434C201.749 104.472 201.698 104.517 201.622 104.567C200.951 104.922 200.324 105.163 199.741 105.289C199.171 105.416 198.494 105.479 197.708 105.479C196.378 105.479 195.2 105.22 194.174 104.7C193.148 104.168 192.344 103.427 191.761 102.477C191.179 101.527 190.887 100.425 190.887 99.1714C190.887 98.2594 191.052 97.4361 191.381 96.7014C191.723 95.9668 192.198 95.3334 192.806 94.8014C193.427 94.2694 194.149 93.8641 194.972 93.5854C195.796 93.2941 196.701 93.1484 197.689 93.1484ZM210.182 94.9154V103.617C210.182 103.972 210.22 104.238 210.296 104.415C210.385 104.593 210.543 104.713 210.771 104.776C211.012 104.84 211.36 104.871 211.816 104.871H214.248C214.92 104.871 215.433 104.65 215.787 104.206C216.142 103.763 216.37 103.18 216.471 102.458C216.471 102.42 216.503 102.408 216.566 102.42C216.642 102.42 216.68 102.439 216.68 102.477C216.642 102.807 216.604 103.206 216.566 103.674C216.528 104.13 216.509 104.555 216.509 104.947C216.509 105.137 216.414 105.232 216.224 105.232H207.484C207.459 105.232 207.446 105.194 207.446 105.118C207.446 105.042 207.459 105.004 207.484 105.004C207.966 105.004 208.327 104.973 208.567 104.909C208.808 104.846 208.966 104.719 209.042 104.529C209.131 104.339 209.175 104.061 209.175 103.693V94.8964C209.175 94.5291 209.131 94.2568 209.042 94.0794C208.966 93.8894 208.808 93.7628 208.567 93.6994C208.327 93.6234 207.966 93.5854 207.484 93.5854C207.459 93.5854 207.446 93.5474 207.446 93.4714C207.446 93.3954 207.459 93.3574 207.484 93.3574C207.788 93.3574 208.124 93.3701 208.491 93.3954C208.871 93.4081 209.264 93.4144 209.669 93.4144C210.1 93.4144 210.499 93.4081 210.866 93.3954C211.246 93.3701 211.582 93.3574 211.873 93.3574C211.899 93.3574 211.911 93.3954 211.911 93.4714C211.911 93.5474 211.899 93.5854 211.873 93.5854C211.392 93.5854 211.031 93.6234 210.79 93.6994C210.55 93.7628 210.385 93.8894 210.296 94.0794C210.22 94.2694 210.182 94.5481 210.182 94.9154ZM224.323 103.693C224.323 104.061 224.361 104.339 224.437 104.529C224.513 104.719 224.672 104.846 224.912 104.909C225.166 104.973 225.533 105.004 226.014 105.004C226.04 105.004 226.052 105.042 226.052 105.118C226.052 105.194 226.04 105.232 226.014 105.232C225.71 105.232 225.375 105.226 225.007 105.213C224.64 105.201 224.235 105.194 223.791 105.194C223.373 105.194 222.974 105.201 222.594 105.213C222.227 105.226 221.891 105.232 221.587 105.232C221.549 105.232 221.53 105.194 221.53 105.118C221.53 105.042 221.549 105.004 221.587 105.004C222.069 105.004 222.43 104.973 222.67 104.909C222.924 104.846 223.088 104.719 223.164 104.529C223.253 104.339 223.297 104.061 223.297 103.693V94.8964C223.297 94.5291 223.253 94.2568 223.164 94.0794C223.088 93.8894 222.924 93.7628 222.67 93.6994C222.43 93.6234 222.069 93.5854 221.587 93.5854C221.549 93.5854 221.53 93.5474 221.53 93.4714C221.53 93.3954 221.549 93.3574 221.587 93.3574C221.891 93.3574 222.227 93.3701 222.594 93.3954C222.974 93.4081 223.373 93.4144 223.791 93.4144C224.235 93.4144 224.64 93.4081 225.007 93.3954C225.387 93.3701 225.723 93.3574 226.014 93.3574C226.04 93.3574 226.052 93.3954 226.052 93.4714C226.052 93.5474 226.04 93.5854 226.014 93.5854C225.533 93.5854 225.172 93.6234 224.931 93.6994C224.691 93.7754 224.526 93.9084 224.437 94.0984C224.361 94.2884 224.323 94.5671 224.323 94.9344V103.693ZM232.989 103.256V93.7944L233.407 93.8324V103.256C233.407 103.902 233.515 104.358 233.73 104.624C233.945 104.878 234.319 105.004 234.851 105.004C234.889 105.004 234.908 105.042 234.908 105.118C234.908 105.194 234.889 105.232 234.851 105.232C234.61 105.232 234.357 105.226 234.091 105.213C233.838 105.201 233.553 105.194 233.236 105.194C232.932 105.194 232.641 105.201 232.362 105.213C232.083 105.226 231.817 105.232 231.564 105.232C231.539 105.232 231.526 105.194 231.526 105.118C231.526 105.042 231.539 105.004 231.564 105.004C232.121 105.004 232.495 104.878 232.685 104.624C232.888 104.358 232.989 103.902 232.989 103.256ZM242.546 105.441C242.546 105.467 242.514 105.479 242.451 105.479C242.388 105.492 242.343 105.492 242.318 105.479L233.73 94.9154C233.299 94.3961 232.913 94.0478 232.571 93.8704C232.242 93.6804 231.925 93.5854 231.621 93.5854C231.583 93.5854 231.564 93.5474 231.564 93.4714C231.564 93.3954 231.583 93.3574 231.621 93.3574C231.836 93.3574 232.058 93.3638 232.286 93.3764C232.514 93.3891 232.717 93.3954 232.894 93.3954C233.071 93.3954 233.236 93.3891 233.388 93.3764C233.553 93.3638 233.673 93.3574 233.749 93.3574C233.914 93.3574 234.028 93.4334 234.091 93.5854C234.154 93.7248 234.332 93.9781 234.623 94.3454L242.394 103.997L242.546 105.441ZM242.546 95.3524V105.441L242.128 104.852V95.3524C242.128 94.7064 242.027 94.2504 241.824 93.9844C241.621 93.7184 241.254 93.5854 240.722 93.5854C240.697 93.5854 240.684 93.5474 240.684 93.4714C240.684 93.3954 240.697 93.3574 240.722 93.3574C240.975 93.3574 241.229 93.3701 241.482 93.3954C241.748 93.4081 242.039 93.4144 242.356 93.4144C242.647 93.4144 242.939 93.4081 243.23 93.3954C243.521 93.3701 243.787 93.3574 244.028 93.3574C244.066 93.3574 244.085 93.3954 244.085 93.4714C244.085 93.5474 244.066 93.5854 244.028 93.5854C243.483 93.5854 243.097 93.7184 242.869 93.9844C242.654 94.2504 242.546 94.7064 242.546 95.3524ZM251.962 103.693C251.962 104.061 252 104.339 252.076 104.529C252.152 104.719 252.311 104.846 252.551 104.909C252.805 104.973 253.172 105.004 253.653 105.004C253.679 105.004 253.691 105.042 253.691 105.118C253.691 105.194 253.679 105.232 253.653 105.232C253.349 105.232 253.014 105.226 252.646 105.213C252.279 105.201 251.874 105.194 251.43 105.194C251.012 105.194 250.613 105.201 250.233 105.213C249.866 105.226 249.53 105.232 249.226 105.232C249.188 105.232 249.169 105.194 249.169 105.118C249.169 105.042 249.188 105.004 249.226 105.004C249.708 105.004 250.069 104.973 250.309 104.909C250.563 104.846 250.727 104.719 250.803 104.529C250.892 104.339 250.936 104.061 250.936 103.693V94.8964C250.936 94.5291 250.892 94.2568 250.803 94.0794C250.727 93.8894 250.563 93.7628 250.309 93.6994C250.069 93.6234 249.708 93.5854 249.226 93.5854C249.188 93.5854 249.169 93.5474 249.169 93.4714C249.169 93.3954 249.188 93.3574 249.226 93.3574C249.53 93.3574 249.866 93.3701 250.233 93.3954C250.613 93.4081 251.012 93.4144 251.43 93.4144C251.874 93.4144 252.279 93.4081 252.646 93.3954C253.026 93.3701 253.362 93.3574 253.653 93.3574C253.679 93.3574 253.691 93.3954 253.691 93.4714C253.691 93.5474 253.679 93.5854 253.653 93.5854C253.172 93.5854 252.811 93.6234 252.57 93.6994C252.33 93.7754 252.165 93.9084 252.076 94.0984C252 94.2884 251.962 94.5671 251.962 94.9344V103.693ZM266.119 93.1484C266.689 93.1484 267.177 93.1738 267.582 93.2244C268 93.2751 268.386 93.3638 268.741 93.4904C269.096 93.6044 269.469 93.7628 269.862 93.9654C269.938 94.0161 269.982 94.0604 269.995 94.0984C270.02 94.1238 270.039 94.2188 270.052 94.3834L270.28 96.5494C270.28 96.5748 270.242 96.6001 270.166 96.6254C270.103 96.6381 270.065 96.6191 270.052 96.5684C269.773 95.5171 269.311 94.7318 268.665 94.2124C268.032 93.6804 267.183 93.4144 266.119 93.4144C264.992 93.4144 264.01 93.6488 263.174 94.1174C262.338 94.5861 261.686 95.2511 261.217 96.1124C260.761 96.9738 260.533 97.9871 260.533 99.1524C260.533 99.9758 260.679 100.755 260.97 101.489C261.274 102.224 261.686 102.87 262.205 103.427C262.737 103.985 263.339 104.422 264.01 104.738C264.681 105.055 265.397 105.213 266.157 105.213C267.246 105.213 268.12 104.954 268.779 104.434C269.438 103.902 269.906 103.13 270.185 102.116C270.198 102.078 270.236 102.066 270.299 102.078C270.375 102.091 270.413 102.11 270.413 102.135L270.261 104.149C270.248 104.301 270.229 104.396 270.204 104.434C270.179 104.472 270.128 104.517 270.052 104.567C269.381 104.922 268.754 105.163 268.171 105.289C267.601 105.416 266.923 105.479 266.138 105.479C264.808 105.479 263.63 105.22 262.604 104.7C261.578 104.168 260.774 103.427 260.191 102.477C259.608 101.527 259.317 100.425 259.317 99.1714C259.317 98.2594 259.482 97.4361 259.811 96.7014C260.153 95.9668 260.628 95.3334 261.236 94.8014C261.857 94.2694 262.579 93.8641 263.402 93.5854C264.225 93.2941 265.131 93.1484 266.119 93.1484Z" fill="#F5F0EA"/>
</svg>
