<svg width="800" height="637" viewBox="0 0 800 637" fill="none" xmlns="http://www.w3.org/2000/svg">
<path d="M246.094 446H43.7914C43.1477 446 42.8258 445.034 42.8258 443.103C42.8258 441.172 43.1477 440.206 43.7914 440.206C55.7011 440.206 64.5528 439.401 70.3467 437.792C76.1406 436.183 80.0032 432.964 81.9345 428.136C84.1877 423.307 85.3142 416.226 85.3142 406.891V183.344C85.3142 174.01 84.1877 167.089 81.9345 162.583C80.0032 157.754 76.1406 154.536 70.3467 152.926C64.5528 150.995 55.7011 150.029 43.7914 150.029C43.1477 150.029 42.8258 149.064 42.8258 147.132C42.8258 145.201 43.1477 144.235 43.7914 144.235H237.886C240.783 144.235 242.232 145.684 242.232 148.581L243.197 207.968C243.197 208.934 242.232 209.578 240.301 209.899C238.691 209.899 237.886 209.417 237.886 208.451C236.921 191.069 231.61 177.711 221.953 168.377C212.619 159.042 200.387 154.375 185.259 154.375H155.806C144.862 154.375 136.494 155.179 130.7 156.789C125.228 158.398 121.365 161.456 119.112 165.962C117.181 170.469 116.215 177.067 116.215 185.758V404.96C116.215 413.329 117.181 419.767 119.112 424.273C121.365 428.779 125.067 431.837 130.217 433.447C135.689 435.056 143.736 435.861 154.358 435.861H192.984C208.434 435.861 221.309 430.389 231.61 419.445C242.232 408.179 249.152 393.05 252.371 374.059C252.371 373.094 253.337 372.772 255.268 373.094C257.199 373.416 258.165 374.059 258.165 375.025C256.877 383.394 255.751 393.533 254.785 405.443C254.141 417.352 253.82 428.457 253.82 438.758C253.82 443.586 251.245 446 246.094 446ZM219.056 333.502C219.056 319.339 215.516 309.2 208.434 303.084C201.675 296.969 190.248 293.911 174.154 293.911H101.73V283.771H175.602C191.053 283.771 201.997 281.196 208.434 276.046C215.194 270.574 218.573 261.883 218.573 249.974C218.573 249.33 219.539 249.008 221.47 249.008C223.402 249.008 224.367 249.33 224.367 249.974C224.367 259.63 224.206 267.194 223.885 272.666C223.885 277.817 223.885 283.289 223.885 289.082C223.885 296.486 224.045 303.728 224.367 310.809C224.689 317.891 224.85 325.455 224.85 333.502C224.85 334.146 223.885 334.468 221.953 334.468C220.022 334.468 219.056 334.146 219.056 333.502ZM371.681 183.827V404.96C371.681 413.651 372.647 420.249 374.578 424.756C376.51 429.262 380.211 432.32 385.683 433.929C391.477 435.217 399.685 435.861 410.307 435.861H462.935C481.604 435.861 496.411 430.067 507.355 418.479C518.299 406.569 525.38 391.119 528.599 372.128C528.599 371.162 529.404 370.84 531.013 371.162C532.944 371.162 533.91 371.645 533.91 372.611C532.944 381.302 531.979 391.924 531.013 404.477C530.047 416.709 529.565 428.136 529.565 438.758C529.565 443.586 527.15 446 522.322 446H299.258C298.614 446 298.292 445.034 298.292 443.103C298.292 441.172 298.614 440.206 299.258 440.206C310.846 440.206 319.536 439.401 325.33 437.792C331.446 436.183 335.47 432.964 337.401 428.136C339.332 423.307 340.298 416.226 340.298 406.891V183.344C340.298 174.01 339.332 167.089 337.401 162.583C335.47 157.754 331.446 154.536 325.33 152.926C319.536 150.995 310.846 150.029 299.258 150.029C298.614 150.029 298.292 149.064 298.292 147.132C298.292 145.201 298.614 144.235 299.258 144.235C306.983 144.235 315.674 144.557 325.33 145.201C334.987 145.523 345.126 145.684 355.748 145.684C367.014 145.684 377.475 145.523 387.132 145.201C396.788 144.557 405.318 144.235 412.721 144.235C413.687 144.235 414.17 145.201 414.17 147.132C414.17 149.064 413.687 150.029 412.721 150.029C401.134 150.029 392.282 150.995 386.166 152.926C380.372 154.536 376.51 157.754 374.578 162.583C372.647 167.411 371.681 174.492 371.681 183.827ZM609.811 200.726C609.811 213.923 613.03 225.35 619.468 235.006C626.227 244.341 634.757 252.549 645.057 259.63C655.358 266.712 666.302 273.793 677.889 280.874C689.799 287.634 701.226 294.876 712.17 302.601C723.436 310.327 732.609 319.5 739.691 330.122C747.094 340.745 750.796 353.781 750.796 369.231C750.796 384.681 746.933 398.683 739.208 411.237C731.483 423.468 720.217 433.286 705.41 440.689C690.926 448.092 672.9 451.794 651.334 451.794C643.609 451.794 635.884 451.15 628.159 449.863C620.755 448.897 613.191 447.127 605.466 444.552C598.063 441.976 590.659 438.758 583.256 434.895C581.647 433.929 580.52 432.803 579.876 431.515C579.554 429.906 579.232 427.975 578.911 425.721L572.634 360.057C572.312 358.448 572.956 357.643 574.565 357.643C576.496 357.321 577.623 357.804 577.945 359.092C580.198 368.748 583.417 378.566 587.601 388.544C591.786 398.522 597.258 407.696 604.017 416.065C610.777 424.434 618.985 431.193 628.641 436.344C638.298 441.494 649.564 444.069 662.439 444.069C671.774 444.069 680.786 442.298 689.477 438.758C698.49 435.217 705.732 429.423 711.204 421.376C716.998 413.329 719.895 402.385 719.895 388.544C719.895 372.772 716.354 359.736 709.273 349.435C702.513 338.813 693.823 329.64 683.2 321.914C672.578 314.189 661.312 306.947 649.403 300.187C638.137 293.106 627.193 285.864 616.571 278.46C606.271 271.057 597.741 262.366 590.981 252.388C584.544 242.088 581.325 229.373 581.325 214.245C581.325 197.185 585.67 183.183 594.361 172.239C603.052 160.973 614.318 152.604 628.159 147.132C641.999 141.66 656.323 138.924 671.13 138.924C680.143 138.924 689.477 139.89 699.134 141.821C708.79 143.431 718.286 146.328 727.62 150.512C730.195 151.478 731.966 152.765 732.931 154.375C734.219 155.662 734.863 157.111 734.863 158.72L738.242 213.762C738.242 215.049 737.438 215.854 735.828 216.176C734.219 216.176 733.092 215.532 732.448 214.245C731.805 207.807 730.034 200.726 727.137 193.001C724.24 184.954 720.056 177.389 714.584 170.308C709.112 163.226 702.191 157.433 693.823 152.926C685.454 148.42 675.314 146.167 663.405 146.167C650.851 146.167 640.551 148.903 632.504 154.375C624.779 159.525 618.985 166.284 615.122 174.653C611.582 182.7 609.811 191.391 609.811 200.726Z" fill="#1A0A0D"/>
<path d="M15.2682 628.241C15.2682 629.831 15.4802 631.05 15.9043 631.899C16.3284 632.694 17.2297 633.251 18.6081 633.569C19.9864 633.887 22.0275 634.046 24.7312 634.046C24.8903 634.046 24.9698 634.205 24.9698 634.523C24.9698 634.841 24.8903 635 24.7312 635C23.0348 635 21.1793 634.973 19.1647 634.92C17.2032 634.867 15.0561 634.841 12.7235 634.841C10.974 634.841 9.27752 634.867 7.63408 634.92C6.04364 634.973 4.61226 635 3.33991 635C3.23388 635 3.18087 634.841 3.18087 634.523C3.18087 634.205 3.23388 634.046 3.33991 634.046C5.30144 634.046 6.75934 633.913 7.7136 633.648C8.66786 633.383 9.30403 632.853 9.62212 632.058C9.94021 631.262 10.0992 630.096 10.0992 628.559V591.74C10.0992 590.203 9.94021 589.063 9.62212 588.321C9.30403 587.526 8.66786 586.995 7.7136 586.73C6.75934 586.412 5.30144 586.253 3.33991 586.253C3.23388 586.253 3.18087 586.094 3.18087 585.776C3.18087 585.458 3.23388 585.299 3.33991 585.299C4.61226 585.299 6.04364 585.352 7.63408 585.458C9.22451 585.511 10.8945 585.538 12.6439 585.538C14.0223 585.538 15.6923 585.458 17.6538 585.299C19.6684 585.14 21.6829 585.06 23.6974 585.06C26.7193 585.06 29.423 585.511 31.8087 586.412C34.2473 587.314 36.1823 588.718 37.6137 590.627C39.0451 592.535 39.7873 595.027 39.8403 598.102C39.8403 600.912 39.3102 603.324 38.2499 605.338C37.2426 607.353 35.8643 609.023 34.1148 610.348C32.4183 611.621 30.5363 612.575 28.4687 613.211C26.4012 613.847 24.3336 614.165 22.2661 614.165C21.6299 614.165 20.9672 614.139 20.278 614.086C19.6418 614.033 19.0322 613.927 18.449 613.768C18.237 613.715 18.1574 613.529 18.2105 613.211C18.3165 612.84 18.449 612.681 18.6081 612.734C19.0852 612.84 19.5623 612.919 20.0395 612.973C20.5696 613.026 21.0467 613.052 21.4708 613.052C23.6444 613.052 25.6855 612.575 27.594 611.621C29.5025 610.666 31.0399 609.208 32.2063 607.247C33.3726 605.232 33.9557 602.741 33.9557 599.772C33.9557 596.856 33.4256 594.417 32.3653 592.456C31.305 590.441 29.8471 588.904 27.9916 587.844C26.1361 586.783 24.0685 586.253 21.7889 586.253C20.0395 586.253 18.6876 586.359 17.7333 586.571C16.8321 586.73 16.1959 587.207 15.8248 588.003C15.4537 588.798 15.2682 590.097 15.2682 591.899V628.241ZM87.2328 635C86.3315 635 84.8736 633.993 82.8591 631.978C80.8975 629.911 78.4854 626.968 75.6226 623.151C72.8128 619.281 69.6585 614.722 66.1595 609.474L70.6127 608.122C75.119 614.536 78.936 619.652 82.0638 623.469C85.2447 627.233 88.028 629.937 90.4136 631.581C92.8523 633.224 95.1849 634.046 97.4115 634.046C97.5706 634.046 97.6501 634.205 97.6501 634.523C97.6501 634.841 97.5706 635 97.4115 635C94.7608 635 92.5872 635 90.8907 635C89.2473 635 88.028 635 87.2328 635ZM67.1933 585.06C71.4345 585.06 74.6683 586.041 76.8949 588.003C79.1746 589.911 80.3144 592.429 80.3144 595.557C80.3144 598.42 79.4661 601.018 77.7697 603.35C76.1262 605.63 73.9261 607.432 71.1694 608.758C68.4656 610.083 65.4968 610.746 62.263 610.746C61.7328 610.746 61.1231 610.719 60.434 610.666C59.7978 610.613 59.2146 610.56 58.6845 610.507V628.559C58.6845 630.096 58.817 631.262 59.0821 632.058C59.4002 632.853 60.0364 633.383 60.9906 633.648C61.9979 633.913 63.4823 634.046 65.4438 634.046C65.6029 634.046 65.6824 634.205 65.6824 634.523C65.6824 634.841 65.6029 635 65.4438 635C64.1715 635 62.7401 634.973 61.1497 634.92C59.6122 634.867 57.9158 634.841 56.0603 634.841C54.3108 634.841 52.6143 634.867 50.9709 634.92C49.3805 634.973 47.9226 635 46.5972 635C46.4912 635 46.4382 634.841 46.4382 634.523C46.4382 634.205 46.4912 634.046 46.5972 634.046C48.5587 634.046 50.0166 633.913 50.9709 633.648C51.9782 633.383 52.6673 632.853 53.0384 632.058C53.4095 631.262 53.5951 630.096 53.5951 628.559V591.74C53.5951 590.203 53.4095 589.063 53.0384 588.321C52.7204 587.526 52.0842 586.995 51.1299 586.73C50.1757 586.412 48.7178 586.253 46.7562 586.253C46.5972 586.253 46.5177 586.094 46.5177 585.776C46.5177 585.458 46.5972 585.299 46.7562 585.299C48.0286 585.299 49.46 585.352 51.0504 585.458C52.6408 585.511 54.3108 585.538 56.0603 585.538C57.7037 585.538 59.5857 585.458 61.7063 585.299C63.8799 585.14 65.7089 585.06 67.1933 585.06ZM74.9069 597.863C74.9069 594.948 74.4563 592.641 73.555 590.945C72.7068 589.249 71.4875 588.056 69.897 587.367C68.3066 586.624 66.3981 586.253 64.1715 586.253C62.2099 586.253 60.8051 586.598 59.9568 587.287C59.1086 587.976 58.6845 589.514 58.6845 591.899V608.599C59.4267 608.705 60.2219 608.784 61.0701 608.837C61.9184 608.89 62.6871 608.917 63.3763 608.917C67.6704 608.917 70.6657 607.989 72.3622 606.134C74.0587 604.225 74.9069 601.468 74.9069 597.863ZM133.423 635H100.103C99.9974 635 99.9444 634.841 99.9444 634.523C99.9444 634.205 99.9974 634.046 100.103 634.046C102.065 634.046 103.523 633.913 104.477 633.648C105.431 633.383 106.068 632.853 106.386 632.058C106.757 631.262 106.942 630.096 106.942 628.559V591.74C106.942 590.203 106.757 589.063 106.386 588.321C106.068 587.526 105.431 586.995 104.477 586.73C103.523 586.412 102.065 586.253 100.103 586.253C99.9974 586.253 99.9444 586.094 99.9444 585.776C99.9444 585.458 99.9974 585.299 100.103 585.299H132.071C132.548 585.299 132.787 585.538 132.787 586.015L132.946 595.796C132.946 595.955 132.787 596.061 132.469 596.114C132.204 596.114 132.071 596.034 132.071 595.875C131.912 593.013 131.037 590.812 129.447 589.275C127.91 587.738 125.895 586.969 123.403 586.969H118.552C116.75 586.969 115.372 587.101 114.417 587.367C113.516 587.632 112.88 588.135 112.509 588.877C112.191 589.62 112.032 590.706 112.032 592.138V628.241C112.032 629.619 112.191 630.679 112.509 631.422C112.88 632.164 113.49 632.667 114.338 632.932C115.239 633.198 116.564 633.33 118.314 633.33H124.676C127.22 633.33 129.341 632.429 131.037 630.626C132.787 628.771 133.927 626.279 134.457 623.151C134.457 622.992 134.616 622.939 134.934 622.992C135.252 623.045 135.411 623.151 135.411 623.31C135.199 624.689 135.013 626.359 134.854 628.32C134.748 630.282 134.695 632.111 134.695 633.807C134.695 634.602 134.271 635 133.423 635ZM128.97 616.471C128.97 614.139 128.387 612.469 127.22 611.462C126.107 610.454 124.225 609.951 121.574 609.951H109.646V608.281H121.813C124.358 608.281 126.16 607.857 127.22 607.008C128.334 606.107 128.89 604.676 128.89 602.714C128.89 602.608 129.049 602.555 129.367 602.555C129.686 602.555 129.845 602.608 129.845 602.714C129.845 604.305 129.818 605.55 129.765 606.452C129.765 607.3 129.765 608.201 129.765 609.155C129.765 610.375 129.792 611.568 129.845 612.734C129.898 613.9 129.924 615.146 129.924 616.471C129.924 616.577 129.765 616.631 129.447 616.631C129.129 616.631 128.97 616.577 128.97 616.471ZM148.859 626.332L149.654 587.128L151.563 587.287L150.767 626.332C150.714 629.089 151.165 631.077 152.119 632.296C153.127 633.463 154.929 634.046 157.527 634.046C157.633 634.046 157.686 634.205 157.686 634.523C157.686 634.841 157.633 635 157.527 635C156.36 635 155.141 634.973 153.869 634.92C152.649 634.867 151.298 634.841 149.813 634.841C148.435 634.841 147.136 634.867 145.917 634.92C144.697 634.973 143.557 635 142.497 635C142.391 635 142.338 634.841 142.338 634.523C142.338 634.205 142.391 634.046 142.497 634.046C144.724 634.046 146.314 633.463 147.268 632.296C148.276 631.077 148.806 629.089 148.859 626.332ZM203.967 634.046C204.126 634.046 204.206 634.205 204.206 634.523C204.206 634.841 204.126 635 203.967 635C202.695 635 201.237 634.973 199.594 634.92C198.003 634.867 196.333 634.841 194.584 634.841C192.887 634.841 191.297 634.867 189.813 634.92C188.381 634.973 187.082 635 185.916 635C185.81 635 185.757 634.841 185.757 634.523C185.757 634.205 185.81 634.046 185.916 634.046C188.567 634.046 190.263 633.701 191.005 633.012C191.748 632.323 192.066 630.838 191.96 628.559L190.449 590.15L193.073 586.492L172.397 634.443C172.344 634.655 172.132 634.761 171.761 634.761C171.39 634.761 171.151 634.655 171.045 634.443L151.086 591.899C149.283 588.135 146.606 586.253 143.054 586.253C142.948 586.253 142.895 586.094 142.895 585.776C142.895 585.458 142.948 585.299 143.054 585.299C143.902 585.299 144.803 585.325 145.758 585.378C146.765 585.432 147.587 585.458 148.223 585.458C149.071 585.458 149.84 585.432 150.529 585.378C151.271 585.325 151.828 585.299 152.199 585.299C152.941 585.299 153.524 585.538 153.948 586.015C154.372 586.492 155.009 587.632 155.857 589.434L173.988 627.604L171.523 631.74L190.926 587.287C191.191 586.651 191.536 586.174 191.96 585.856C192.384 585.485 192.834 585.299 193.312 585.299C193.63 585.299 194.054 585.325 194.584 585.378C195.114 585.432 195.75 585.458 196.492 585.458C197.924 585.458 199.09 585.432 199.991 585.378C200.893 585.325 201.847 585.299 202.854 585.299C202.96 585.299 203.013 585.458 203.013 585.776C203.013 586.094 202.96 586.253 202.854 586.253C200.309 586.253 198.427 586.624 197.208 587.367C195.989 588.109 195.432 589.567 195.538 591.74L197.129 628.559C197.182 630.096 197.367 631.262 197.685 632.058C198.003 632.853 198.639 633.383 199.594 633.648C200.601 633.913 202.059 634.046 203.967 634.046ZM221.618 628.559C221.618 630.096 221.777 631.262 222.095 632.058C222.413 632.853 223.05 633.383 224.004 633.648C225.011 633.913 226.469 634.046 228.377 634.046C228.536 634.046 228.616 634.205 228.616 634.523C228.616 634.841 228.536 635 228.377 635C227.105 635 225.674 634.973 224.083 634.92C222.546 634.867 220.823 634.841 218.914 634.841C217.165 634.841 215.468 634.867 213.825 634.92C212.235 634.973 210.803 635 209.531 635C209.372 635 209.292 634.841 209.292 634.523C209.292 634.205 209.372 634.046 209.531 634.046C211.439 634.046 212.897 633.913 213.905 633.648C214.912 633.383 215.574 632.853 215.893 632.058C216.211 631.262 216.37 630.096 216.37 628.559V591.74C216.37 590.203 216.211 589.063 215.893 588.321C215.574 587.526 214.912 586.995 213.905 586.73C212.897 586.412 211.439 586.253 209.531 586.253C209.372 586.253 209.292 586.094 209.292 585.776C209.292 585.458 209.372 585.299 209.531 585.299C210.803 585.299 212.235 585.352 213.825 585.458C215.468 585.511 217.165 585.538 218.914 585.538C220.823 585.538 222.572 585.511 224.163 585.458C225.753 585.352 227.158 585.299 228.377 585.299C228.536 585.299 228.616 585.458 228.616 585.776C228.616 586.094 228.536 586.253 228.377 586.253C226.469 586.253 225.011 586.412 224.004 586.73C223.05 587.048 222.413 587.605 222.095 588.4C221.777 589.196 221.618 590.362 221.618 591.899V628.559ZM268.936 635H235.616C235.51 635 235.457 634.841 235.457 634.523C235.457 634.205 235.51 634.046 235.616 634.046C237.578 634.046 239.036 633.913 239.99 633.648C240.944 633.383 241.581 632.853 241.899 632.058C242.27 631.262 242.455 630.096 242.455 628.559V591.74C242.455 590.203 242.27 589.063 241.899 588.321C241.581 587.526 240.944 586.995 239.99 586.73C239.036 586.412 237.578 586.253 235.616 586.253C235.51 586.253 235.457 586.094 235.457 585.776C235.457 585.458 235.51 585.299 235.616 585.299H267.584C268.061 585.299 268.3 585.538 268.3 586.015L268.459 595.796C268.459 595.955 268.3 596.061 267.982 596.114C267.717 596.114 267.584 596.034 267.584 595.875C267.425 593.013 266.55 590.812 264.96 589.275C263.422 587.738 261.408 586.969 258.916 586.969H254.065C252.263 586.969 250.885 587.101 249.93 587.367C249.029 587.632 248.393 588.135 248.022 588.877C247.704 589.62 247.545 590.706 247.545 592.138V628.241C247.545 629.619 247.704 630.679 248.022 631.422C248.393 632.164 249.003 632.667 249.851 632.932C250.752 633.198 252.077 633.33 253.827 633.33H260.189C262.733 633.33 264.854 632.429 266.55 630.626C268.3 628.771 269.44 626.279 269.97 623.151C269.97 622.992 270.129 622.939 270.447 622.992C270.765 623.045 270.924 623.151 270.924 623.31C270.712 624.689 270.526 626.359 270.367 628.32C270.261 630.282 270.208 632.111 270.208 633.807C270.208 634.602 269.784 635 268.936 635ZM264.483 616.471C264.483 614.139 263.9 612.469 262.733 611.462C261.62 610.454 259.738 609.951 257.087 609.951H245.159V608.281H257.326C259.87 608.281 261.673 607.857 262.733 607.008C263.847 606.107 264.403 604.676 264.403 602.714C264.403 602.608 264.562 602.555 264.88 602.555C265.198 602.555 265.357 602.608 265.357 602.714C265.357 604.305 265.331 605.55 265.278 606.452C265.278 607.3 265.278 608.201 265.278 609.155C265.278 610.375 265.304 611.568 265.357 612.734C265.41 613.9 265.437 615.146 265.437 616.471C265.437 616.577 265.278 616.631 264.96 616.631C264.642 616.631 264.483 616.577 264.483 616.471ZM318.964 635C318.063 635 316.605 633.993 314.59 631.978C312.629 629.911 310.216 626.968 307.354 623.151C304.544 619.281 301.389 614.722 297.891 609.474L302.344 608.122C306.85 614.536 310.667 619.652 313.795 623.469C316.976 627.233 319.759 629.937 322.145 631.581C324.583 633.224 326.916 634.046 329.143 634.046C329.302 634.046 329.381 634.205 329.381 634.523C329.381 634.841 329.302 635 329.143 635C326.492 635 324.318 635 322.622 635C320.978 635 319.759 635 318.964 635ZM298.924 585.06C303.165 585.06 306.399 586.041 308.626 588.003C310.906 589.911 312.045 592.429 312.045 595.557C312.045 598.42 311.197 601.018 309.501 603.35C307.857 605.63 305.657 607.432 302.9 608.758C300.197 610.083 297.228 610.746 293.994 610.746C293.464 610.746 292.854 610.719 292.165 610.666C291.529 610.613 290.946 610.56 290.416 610.507V628.559C290.416 630.096 290.548 631.262 290.813 632.058C291.131 632.853 291.767 633.383 292.722 633.648C293.729 633.913 295.213 634.046 297.175 634.046C297.334 634.046 297.413 634.205 297.413 634.523C297.413 634.841 297.334 635 297.175 635C295.902 635 294.471 634.973 292.881 634.92C291.343 634.867 289.647 634.841 287.791 634.841C286.042 634.841 284.345 634.867 282.702 634.92C281.111 634.973 279.654 635 278.328 635C278.222 635 278.169 634.841 278.169 634.523C278.169 634.205 278.222 634.046 278.328 634.046C280.29 634.046 281.748 633.913 282.702 633.648C283.709 633.383 284.398 632.853 284.769 632.058C285.141 631.262 285.326 630.096 285.326 628.559V591.74C285.326 590.203 285.141 589.063 284.769 588.321C284.451 587.526 283.815 586.995 282.861 586.73C281.907 586.412 280.449 586.253 278.487 586.253C278.328 586.253 278.249 586.094 278.249 585.776C278.249 585.458 278.328 585.299 278.487 585.299C279.76 585.299 281.191 585.352 282.781 585.458C284.372 585.511 286.042 585.538 287.791 585.538C289.435 585.538 291.317 585.458 293.437 585.299C295.611 585.14 297.44 585.06 298.924 585.06ZM306.638 597.863C306.638 594.948 306.187 592.641 305.286 590.945C304.438 589.249 303.218 588.056 301.628 587.367C300.038 586.624 298.129 586.253 295.902 586.253C293.941 586.253 292.536 586.598 291.688 587.287C290.84 587.976 290.416 589.514 290.416 591.899V608.599C291.158 608.705 291.953 608.784 292.801 608.837C293.649 608.89 294.418 608.917 295.107 608.917C299.401 608.917 302.397 607.989 304.093 606.134C305.79 604.225 306.638 601.468 306.638 597.863ZM362.321 628.241C362.321 629.831 362.533 631.05 362.957 631.899C363.381 632.694 364.283 633.251 365.661 633.569C367.039 633.887 369.08 634.046 371.784 634.046C371.943 634.046 372.023 634.205 372.023 634.523C372.023 634.841 371.943 635 371.784 635C370.088 635 368.232 634.973 366.218 634.92C364.256 634.867 362.109 634.841 359.776 634.841C358.027 634.841 356.33 634.867 354.687 634.92C353.097 634.973 351.665 635 350.393 635C350.287 635 350.234 634.841 350.234 634.523C350.234 634.205 350.287 634.046 350.393 634.046C352.354 634.046 353.812 633.913 354.767 633.648C355.721 633.383 356.357 632.853 356.675 632.058C356.993 631.262 357.152 630.096 357.152 628.559V591.74C357.152 590.203 356.993 589.063 356.675 588.321C356.357 587.526 355.721 586.995 354.767 586.73C353.812 586.412 352.354 586.253 350.393 586.253C350.287 586.253 350.234 586.094 350.234 585.776C350.234 585.458 350.287 585.299 350.393 585.299C351.665 585.299 353.097 585.352 354.687 585.458C356.277 585.511 357.947 585.538 359.697 585.538C361.075 585.538 362.745 585.458 364.707 585.299C366.721 585.14 368.736 585.06 370.75 585.06C373.772 585.06 376.476 585.511 378.862 586.412C381.3 587.314 383.235 588.718 384.667 590.627C386.098 592.535 386.84 595.027 386.893 598.102C386.893 600.912 386.363 603.324 385.303 605.338C384.296 607.353 382.917 609.023 381.168 610.348C379.471 611.621 377.589 612.575 375.522 613.211C373.454 613.847 371.387 614.165 369.319 614.165C368.683 614.165 368.02 614.139 367.331 614.086C366.695 614.033 366.085 613.927 365.502 613.768C365.29 613.715 365.21 613.529 365.263 613.211C365.369 612.84 365.502 612.681 365.661 612.734C366.138 612.84 366.615 612.919 367.092 612.973C367.623 613.026 368.1 613.052 368.524 613.052C370.697 613.052 372.738 612.575 374.647 611.621C376.555 610.666 378.093 609.208 379.259 607.247C380.425 605.232 381.009 602.741 381.009 599.772C381.009 596.856 380.479 594.417 379.418 592.456C378.358 590.441 376.9 588.904 375.045 587.844C373.189 586.783 371.121 586.253 368.842 586.253C367.092 586.253 365.741 586.359 364.786 586.571C363.885 586.73 363.249 587.207 362.878 588.003C362.507 588.798 362.321 590.097 362.321 591.899V628.241ZM419.336 635.954C415.519 635.954 412.046 635.292 408.918 633.966C405.843 632.588 403.193 630.706 400.966 628.32C398.793 625.935 397.096 623.204 395.877 620.129C394.71 617.002 394.127 613.688 394.127 610.189C394.127 605.895 394.949 602.131 396.592 598.897C398.289 595.663 400.515 592.986 403.272 590.865C406.029 588.692 409.051 587.075 412.338 586.015C415.625 584.954 418.885 584.424 422.119 584.424C426.042 584.424 429.541 585.14 432.616 586.571C435.744 587.95 438.394 589.832 440.568 592.217C442.741 594.603 444.385 597.307 445.498 600.329C446.665 603.35 447.248 606.452 447.248 609.633C447.248 613.344 446.505 616.79 445.021 619.97C443.537 623.151 441.496 625.935 438.898 628.32C436.353 630.706 433.384 632.588 429.992 633.966C426.652 635.292 423.1 635.954 419.336 635.954ZM422.119 634.284C425.724 634.284 428.958 633.436 431.82 631.74C434.683 629.99 436.963 627.445 438.659 624.106C440.356 620.766 441.204 616.684 441.204 611.859C441.204 606.876 440.276 602.476 438.421 598.659C436.618 594.789 434.021 591.767 430.628 589.593C427.288 587.367 423.338 586.253 418.779 586.253C412.894 586.253 408.309 588.162 405.022 591.979C401.788 595.743 400.171 600.885 400.171 607.406C400.171 611.17 400.675 614.695 401.682 617.982C402.742 621.216 404.253 624.079 406.215 626.571C408.176 629.009 410.509 630.918 413.212 632.296C415.916 633.622 418.885 634.284 422.119 634.284ZM465.826 591.82V628.241C465.826 629.672 465.985 630.759 466.303 631.501C466.621 632.243 467.231 632.747 468.132 633.012C469.086 633.224 470.438 633.33 472.188 633.33H480.856C483.93 633.33 486.369 632.376 488.172 630.467C489.974 628.506 491.14 625.961 491.67 622.833C491.67 622.674 491.803 622.621 492.068 622.674C492.386 622.674 492.545 622.754 492.545 622.913C492.386 624.344 492.227 626.094 492.068 628.161C491.909 630.176 491.83 632.058 491.83 633.807C491.83 634.602 491.432 635 490.637 635H453.898C453.792 635 453.739 634.841 453.739 634.523C453.739 634.205 453.792 634.046 453.898 634.046C455.806 634.046 457.238 633.913 458.192 633.648C459.199 633.383 459.862 632.853 460.18 632.058C460.498 631.262 460.657 630.096 460.657 628.559V591.74C460.657 590.203 460.498 589.063 460.18 588.321C459.862 587.526 459.199 586.995 458.192 586.73C457.238 586.412 455.806 586.253 453.898 586.253C453.792 586.253 453.739 586.094 453.739 585.776C453.739 585.458 453.792 585.299 453.898 585.299C455.17 585.299 456.601 585.352 458.192 585.458C459.782 585.511 461.452 585.538 463.202 585.538C465.057 585.538 466.78 585.511 468.371 585.458C469.961 585.352 471.366 585.299 472.585 585.299C472.744 585.299 472.824 585.458 472.824 585.776C472.824 586.094 472.744 586.253 472.585 586.253C470.677 586.253 469.219 586.412 468.212 586.73C467.257 586.995 466.621 587.526 466.303 588.321C465.985 589.116 465.826 590.282 465.826 591.82ZM515.588 612.098L527.516 593.808C529.054 591.316 529.61 589.434 529.186 588.162C528.762 586.889 527.357 586.253 524.971 586.253C524.865 586.253 524.812 586.094 524.812 585.776C524.812 585.458 524.865 585.299 524.971 585.299C526.403 585.299 527.781 585.352 529.107 585.458C530.432 585.511 532.155 585.538 534.275 585.538C535.601 585.538 536.661 585.511 537.456 585.458C538.305 585.352 539.312 585.299 540.478 585.299C540.584 585.299 540.637 585.458 540.637 585.776C540.637 586.094 540.584 586.253 540.478 586.253C539.206 586.253 537.907 586.571 536.582 587.207C535.256 587.844 533.984 588.745 532.765 589.911C531.598 591.078 530.485 592.482 529.425 594.126L516.94 613.291L515.588 612.098ZM514.713 613.37L500.399 592.376C498.915 590.097 497.51 588.506 496.185 587.605C494.859 586.704 493.322 586.253 491.572 586.253C491.413 586.253 491.334 586.094 491.334 585.776C491.334 585.458 491.413 585.299 491.572 585.299C492.474 585.299 493.428 585.352 494.435 585.458C495.442 585.511 496.37 585.538 497.218 585.538C498.65 585.538 500.028 585.538 501.353 585.538C502.732 585.485 504.004 585.432 505.171 585.378C506.39 585.325 507.45 585.299 508.351 585.299C508.457 585.299 508.51 585.458 508.51 585.776C508.51 586.094 508.457 586.253 508.351 586.253C506.284 586.253 504.985 586.545 504.455 587.128C503.978 587.711 504.163 588.612 505.011 589.832L518.61 609.792L514.713 613.37ZM513.6 610.348L518.769 609.633V628.559C518.769 630.096 518.928 631.262 519.246 632.058C519.564 632.853 520.2 633.383 521.154 633.648C522.109 633.913 523.567 634.046 525.528 634.046C525.687 634.046 525.767 634.205 525.767 634.523C525.767 634.841 525.687 635 525.528 635C524.256 635 522.824 634.973 521.234 634.92C519.696 634.867 518 634.841 516.144 634.841C514.395 634.841 512.699 634.867 511.055 634.92C509.412 634.973 507.98 635 506.761 635C506.602 635 506.522 634.841 506.522 634.523C506.522 634.205 506.602 634.046 506.761 634.046C508.669 634.046 510.127 633.913 511.135 633.648C512.142 633.383 512.805 632.853 513.123 632.058C513.441 631.262 513.6 630.096 513.6 628.559V610.348ZM570.464 584.424C572.691 584.424 574.652 584.53 576.349 584.742C578.098 584.954 579.715 585.299 581.199 585.776C582.684 586.2 584.195 586.81 585.732 587.605C586.103 587.817 586.315 588.003 586.368 588.162C586.474 588.268 586.554 588.665 586.607 589.355L587.561 598.818C587.561 598.924 587.429 599.03 587.164 599.136C586.898 599.189 586.713 599.109 586.607 598.897C585.388 594.497 583.426 591.184 580.722 588.957C578.072 586.73 574.573 585.617 570.225 585.617C565.719 585.617 561.77 586.598 558.377 588.559C555.037 590.521 552.413 593.304 550.504 596.909C548.649 600.514 547.721 604.755 547.721 609.633C547.721 613.132 548.304 616.418 549.47 619.493C550.69 622.515 552.36 625.192 554.48 627.525C556.601 629.805 559.013 631.581 561.717 632.853C564.473 634.125 567.389 634.761 570.464 634.761C574.864 634.761 578.416 633.701 581.12 631.581C583.824 629.407 585.865 626.173 587.243 621.879C587.296 621.72 587.455 621.667 587.72 621.72C588.038 621.773 588.197 621.852 588.197 621.958L587.402 630.706C587.349 631.342 587.27 631.74 587.164 631.899C587.057 632.058 586.845 632.243 586.527 632.455C583.771 633.834 581.173 634.761 578.734 635.239C576.296 635.769 573.539 636.034 570.464 636.034C564.844 636.034 559.861 634.947 555.514 632.773C551.22 630.547 547.827 627.472 545.335 623.549C542.896 619.573 541.677 614.987 541.677 609.792C541.677 605.975 542.393 602.529 543.824 599.454C545.256 596.326 547.27 593.649 549.868 591.422C552.466 589.196 555.514 587.473 559.013 586.253C562.512 585.034 566.329 584.424 570.464 584.424ZM607.008 591.82V628.241C607.008 629.672 607.167 630.759 607.485 631.501C607.803 632.243 608.413 632.747 609.314 633.012C610.268 633.224 611.62 633.33 613.37 633.33H622.037C625.112 633.33 627.551 632.376 629.353 630.467C631.156 628.506 632.322 625.961 632.852 622.833C632.852 622.674 632.985 622.621 633.25 622.674C633.568 622.674 633.727 622.754 633.727 622.913C633.568 624.344 633.409 626.094 633.25 628.161C633.091 630.176 633.011 632.058 633.011 633.807C633.011 634.602 632.614 635 631.819 635H595.08C594.974 635 594.921 634.841 594.921 634.523C594.921 634.205 594.974 634.046 595.08 634.046C596.988 634.046 598.42 633.913 599.374 633.648C600.381 633.383 601.044 632.853 601.362 632.058C601.68 631.262 601.839 630.096 601.839 628.559V591.74C601.839 590.203 601.68 589.063 601.362 588.321C601.044 587.526 600.381 586.995 599.374 586.73C598.42 586.412 596.988 586.253 595.08 586.253C594.974 586.253 594.921 586.094 594.921 585.776C594.921 585.458 594.974 585.299 595.08 585.299C596.352 585.299 597.783 585.352 599.374 585.458C600.964 585.511 602.634 585.538 604.384 585.538C606.239 585.538 607.962 585.511 609.553 585.458C611.143 585.352 612.548 585.299 613.767 585.299C613.926 585.299 614.006 585.458 614.006 585.776C614.006 586.094 613.926 586.253 613.767 586.253C611.859 586.253 610.401 586.412 609.394 586.73C608.439 586.995 607.803 587.526 607.485 588.321C607.167 589.116 607.008 590.282 607.008 591.82ZM650.522 628.559C650.522 630.096 650.681 631.262 651 632.058C651.318 632.853 651.954 633.383 652.908 633.648C653.915 633.913 655.373 634.046 657.282 634.046C657.441 634.046 657.52 634.205 657.52 634.523C657.52 634.841 657.441 635 657.282 635C656.009 635 654.578 634.973 652.988 634.92C651.45 634.867 649.727 634.841 647.819 634.841C646.069 634.841 644.373 634.867 642.729 634.92C641.139 634.973 639.707 635 638.435 635C638.276 635 638.197 634.841 638.197 634.523C638.197 634.205 638.276 634.046 638.435 634.046C640.344 634.046 641.802 633.913 642.809 633.648C643.816 633.383 644.479 632.853 644.797 632.058C645.115 631.262 645.274 630.096 645.274 628.559V591.74C645.274 590.203 645.115 589.063 644.797 588.321C644.479 587.526 643.816 586.995 642.809 586.73C641.802 586.412 640.344 586.253 638.435 586.253C638.276 586.253 638.197 586.094 638.197 585.776C638.197 585.458 638.276 585.299 638.435 585.299C639.707 585.299 641.139 585.352 642.729 585.458C644.373 585.511 646.069 585.538 647.819 585.538C649.727 585.538 651.477 585.511 653.067 585.458C654.658 585.352 656.062 585.299 657.282 585.299C657.441 585.299 657.52 585.458 657.52 585.776C657.52 586.094 657.441 586.253 657.282 586.253C655.373 586.253 653.915 586.412 652.908 586.73C651.954 587.048 651.318 587.605 651 588.4C650.681 589.196 650.522 590.362 650.522 591.899V628.559ZM670.644 626.332V587.128L672.473 587.287V626.332C672.473 629.089 672.95 631.077 673.904 632.296C674.859 633.463 676.449 634.046 678.676 634.046C678.835 634.046 678.914 634.205 678.914 634.523C678.914 634.841 678.835 635 678.676 635C677.615 635 676.528 634.973 675.415 634.92C674.302 634.867 673.056 634.841 671.678 634.841C670.352 634.841 669.08 634.867 667.861 634.92C666.641 634.973 665.475 635 664.362 635C664.256 635 664.203 634.841 664.203 634.523C664.203 634.205 664.256 634.046 664.362 634.046C666.694 634.046 668.311 633.463 669.212 632.296C670.167 631.077 670.644 629.089 670.644 626.332ZM710.723 635.954C710.723 636.06 710.59 636.113 710.325 636.113C710.06 636.166 709.875 636.166 709.769 636.113L673.189 591.82C671.386 589.646 669.769 588.188 668.338 587.446C666.959 586.651 665.634 586.253 664.362 586.253C664.203 586.253 664.123 586.094 664.123 585.776C664.123 585.458 664.203 585.299 664.362 585.299C665.316 585.299 666.27 585.325 667.224 585.378C668.232 585.432 669.133 585.458 669.928 585.458C670.882 585.458 671.784 585.432 672.632 585.378C673.48 585.325 674.116 585.299 674.54 585.299C675.23 585.299 675.707 585.617 675.972 586.253C676.237 586.836 677.006 587.897 678.278 589.434L710.087 628.479L710.723 635.954ZM710.723 594.046V635.954L708.894 633.489V594.046C708.894 591.29 708.417 589.302 707.462 588.082C706.561 586.863 705.024 586.253 702.85 586.253C702.744 586.253 702.691 586.094 702.691 585.776C702.691 585.458 702.744 585.299 702.85 585.299C703.91 585.299 704.997 585.352 706.111 585.458C707.277 585.511 708.523 585.538 709.848 585.538C711.12 585.538 712.366 585.511 713.586 585.458C714.858 585.352 716.024 585.299 717.084 585.299C717.244 585.299 717.323 585.458 717.323 585.776C717.323 586.094 717.244 586.253 717.084 586.253C714.805 586.253 713.161 586.863 712.154 588.082C711.2 589.302 710.723 591.29 710.723 594.046ZM734.704 628.559C734.704 630.096 734.863 631.262 735.181 632.058C735.499 632.853 736.135 633.383 737.089 633.648C738.096 633.913 739.554 634.046 741.463 634.046C741.622 634.046 741.701 634.205 741.701 634.523C741.701 634.841 741.622 635 741.463 635C740.191 635 738.759 634.973 737.169 634.92C735.631 634.867 733.908 634.841 732 634.841C730.25 634.841 728.554 634.867 726.91 634.92C725.32 634.973 723.889 635 722.616 635C722.457 635 722.378 634.841 722.378 634.523C722.378 634.205 722.457 634.046 722.616 634.046C724.525 634.046 725.983 633.913 726.99 633.648C727.997 633.383 728.66 632.853 728.978 632.058C729.296 631.262 729.455 630.096 729.455 628.559V591.74C729.455 590.203 729.296 589.063 728.978 588.321C728.66 587.526 727.997 586.995 726.99 586.73C725.983 586.412 724.525 586.253 722.616 586.253C722.457 586.253 722.378 586.094 722.378 585.776C722.378 585.458 722.457 585.299 722.616 585.299C723.889 585.299 725.32 585.352 726.91 585.458C728.554 585.511 730.25 585.538 732 585.538C733.908 585.538 735.658 585.511 737.248 585.458C738.839 585.352 740.244 585.299 741.463 585.299C741.622 585.299 741.701 585.458 741.701 585.776C741.701 586.094 741.622 586.253 741.463 586.253C739.554 586.253 738.096 586.412 737.089 586.73C736.135 587.048 735.499 587.605 735.181 588.4C734.863 589.196 734.704 590.362 734.704 591.899V628.559ZM777.966 584.424C780.192 584.424 782.154 584.53 783.85 584.742C785.6 584.954 787.217 585.299 788.701 585.776C790.186 586.2 791.696 586.81 793.234 587.605C793.605 587.817 793.817 588.003 793.87 588.162C793.976 588.268 794.056 588.665 794.109 589.355L795.063 598.818C795.063 598.924 794.93 599.03 794.665 599.136C794.4 599.189 794.215 599.109 794.109 598.897C792.889 594.497 790.928 591.184 788.224 588.957C785.573 586.73 782.074 585.617 777.727 585.617C773.221 585.617 769.271 586.598 765.878 588.559C762.539 590.521 759.914 593.304 758.006 596.909C756.15 600.514 755.223 604.755 755.223 609.633C755.223 613.132 755.806 616.418 756.972 619.493C758.191 622.515 759.861 625.192 761.982 627.525C764.102 629.805 766.515 631.581 769.218 632.853C771.975 634.125 774.891 634.761 777.966 634.761C782.366 634.761 785.918 633.701 788.622 631.581C791.325 629.407 793.366 626.173 794.745 621.879C794.798 621.72 794.957 621.667 795.222 621.72C795.54 621.773 795.699 621.852 795.699 621.958L794.904 630.706C794.851 631.342 794.771 631.74 794.665 631.899C794.559 632.058 794.347 632.243 794.029 632.455C791.272 633.834 788.675 634.761 786.236 635.239C783.797 635.769 781.041 636.034 777.966 636.034C772.346 636.034 767.363 634.947 763.016 632.773C758.722 630.547 755.329 627.472 752.837 623.549C750.398 619.573 749.179 614.987 749.179 609.792C749.179 605.975 749.895 602.529 751.326 599.454C752.757 596.326 754.772 593.649 757.37 591.422C759.967 589.196 763.016 587.473 766.515 586.253C770.014 585.034 773.831 584.424 777.966 584.424Z" fill="#1A0A0D"/>
</svg>
