<svg width="254" height="13" viewBox="0 0 254 13" fill="none" xmlns="http://www.w3.org/2000/svg">
<path d="M2.73593 10.469C2.73593 10.849 2.7866 11.1403 2.88793 11.343C3.00193 11.533 3.22993 11.666 3.57193 11.742C3.91393 11.818 4.42693 11.856 5.11094 11.856C5.14894 11.856 5.16794 11.894 5.16794 11.97C5.16794 12.046 5.14894 12.084 5.11094 12.084C4.7056 12.084 4.26227 12.0777 3.78094 12.065C3.31227 12.0523 2.79927 12.046 2.24194 12.046C1.8366 12.046 1.44393 12.0523 1.06393 12.065C0.683935 12.0777 0.341935 12.084 0.0379349 12.084C0.0126015 12.084 -6.51255e-05 12.046 -6.51255e-05 11.97C-6.51255e-05 11.894 0.0126015 11.856 0.0379349 11.856C0.519268 11.856 0.880268 11.8243 1.12093 11.761C1.3616 11.6977 1.51993 11.571 1.59593 11.381C1.6846 11.191 1.72893 10.9123 1.72893 10.545V1.74798C1.72893 1.38065 1.6846 1.10832 1.59593 0.930984C1.51993 0.740984 1.3616 0.614317 1.12093 0.550983C0.880268 0.474984 0.519268 0.436984 0.0379349 0.436984C0.0126015 0.436984 -6.51255e-05 0.398984 -6.51255e-05 0.322984C-6.51255e-05 0.246984 0.0126015 0.208984 0.0379349 0.208984C0.341935 0.208984 0.677602 0.221651 1.04493 0.246984C1.42493 0.25965 1.8176 0.265984 2.22293 0.265984C2.55227 0.265984 2.95127 0.246984 3.41994 0.208984C3.8886 0.170984 4.37627 0.151984 4.88294 0.151984C5.5796 0.151984 6.21293 0.259651 6.78294 0.474984C7.35294 0.690317 7.8026 1.02598 8.13194 1.48198C8.47394 1.93798 8.64493 2.53332 8.64493 3.26798C8.64493 3.93932 8.51827 4.51565 8.26494 4.99698C8.0116 5.47832 7.67594 5.87732 7.25794 6.19398C6.8526 6.49798 6.40294 6.72598 5.90894 6.87798C5.41494 7.02998 4.92727 7.10598 4.44594 7.10598C4.28127 7.10598 4.1166 7.09965 3.95193 7.08698C3.79993 7.07432 3.65427 7.04898 3.51494 7.01098C3.46427 6.99832 3.44527 6.95398 3.45793 6.87798C3.48327 6.78932 3.51494 6.75132 3.55294 6.76398C3.66693 6.78932 3.78093 6.80832 3.89493 6.82098C4.0216 6.83365 4.1356 6.83998 4.23694 6.83998C4.79427 6.83998 5.31994 6.72598 5.81394 6.49798C6.30794 6.26998 6.70694 5.92165 7.01094 5.45298C7.31494 4.97165 7.46694 4.36998 7.46694 3.64798C7.46694 2.95132 7.3276 2.36232 7.04894 1.88098C6.78294 1.39965 6.42194 1.03232 5.96593 0.778984C5.50994 0.525651 5.00327 0.398984 4.44594 0.398984C3.98994 0.398984 3.63527 0.424318 3.38194 0.474984C3.14127 0.512984 2.97027 0.626984 2.86893 0.816983C2.78027 1.00698 2.73593 1.32998 2.73593 1.78598V10.469ZM23.9027 12.084C23.6873 12.084 23.3327 11.837 22.8387 11.343C22.3447 10.849 21.7493 10.146 21.0527 9.23398C20.356 8.30932 19.577 7.21998 18.7157 5.96598L19.6277 5.68098C20.717 7.21365 21.6417 8.43598 22.4017 9.34798C23.1617 10.2473 23.833 10.8933 24.4157 11.286C24.9983 11.666 25.562 11.856 26.1067 11.856C26.1447 11.856 26.1637 11.894 26.1637 11.97C26.1637 12.046 26.1447 12.084 26.1067 12.084C25.5367 12.084 25.068 12.084 24.7007 12.084C24.346 12.084 24.08 12.084 23.9027 12.084ZM18.9437 0.151984C19.919 0.151984 20.66 0.386317 21.1667 0.854984C21.686 1.32365 21.9457 1.93165 21.9457 2.67898C21.9457 3.35032 21.7493 3.95832 21.3567 4.50298C20.964 5.04765 20.4383 5.47832 19.7797 5.79498C19.1337 6.11165 18.418 6.26998 17.6327 6.26998C17.5187 6.26998 17.3857 6.26365 17.2337 6.25098C17.0817 6.23832 16.9423 6.22565 16.8157 6.21298V10.545C16.8157 10.9123 16.8537 11.191 16.9297 11.381C17.0057 11.571 17.164 11.6977 17.4047 11.761C17.658 11.8243 18.0253 11.856 18.5067 11.856C18.5447 11.856 18.5637 11.894 18.5637 11.97C18.5637 12.046 18.5447 12.084 18.5067 12.084C18.2027 12.084 17.867 12.0777 17.4997 12.065C17.145 12.0523 16.746 12.046 16.3027 12.046C15.8973 12.046 15.5047 12.0523 15.1247 12.065C14.7447 12.0777 14.4027 12.084 14.0987 12.084C14.0733 12.084 14.0607 12.046 14.0607 11.97C14.0607 11.894 14.0733 11.856 14.0987 11.856C14.58 11.856 14.941 11.8243 15.1817 11.761C15.435 11.6977 15.606 11.571 15.6947 11.381C15.7833 11.191 15.8277 10.9123 15.8277 10.545V1.74798C15.8277 1.38065 15.7833 1.10832 15.6947 0.930984C15.6187 0.740984 15.4603 0.614317 15.2197 0.550983C14.979 0.474984 14.618 0.436984 14.1367 0.436984C14.0987 0.436984 14.0797 0.398984 14.0797 0.322984C14.0797 0.246984 14.0987 0.208984 14.1367 0.208984C14.428 0.208984 14.7573 0.221651 15.1247 0.246984C15.5047 0.25965 15.8973 0.265984 16.3027 0.265984C16.6953 0.265984 17.1513 0.246984 17.6707 0.208984C18.19 0.170984 18.6143 0.151984 18.9437 0.151984ZM20.8817 3.19198C20.8817 2.50798 20.7677 1.96332 20.5397 1.55798C20.3243 1.15265 20.0077 0.861317 19.5897 0.683984C19.1843 0.493984 18.6903 0.398984 18.1077 0.398984C17.6517 0.398984 17.3223 0.481317 17.1197 0.645983C16.917 0.81065 16.8157 1.19065 16.8157 1.78598V5.77598C16.993 5.78865 17.183 5.80132 17.3857 5.81398C17.601 5.82665 17.791 5.83298 17.9557 5.83298C19.045 5.83298 19.805 5.60498 20.2357 5.14898C20.6663 4.69298 20.8817 4.04065 20.8817 3.19198ZM38.4185 12.084H30.5715C30.5462 12.084 30.5335 12.046 30.5335 11.97C30.5335 11.894 30.5462 11.856 30.5715 11.856C31.0529 11.856 31.4139 11.8243 31.6545 11.761C31.8952 11.6977 32.0535 11.571 32.1295 11.381C32.2182 11.191 32.2625 10.9123 32.2625 10.545V1.74798C32.2625 1.38065 32.2182 1.10832 32.1295 0.930984C32.0535 0.740984 31.8952 0.614317 31.6545 0.550983C31.4139 0.474984 31.0529 0.436984 30.5715 0.436984C30.5462 0.436984 30.5335 0.398984 30.5335 0.322984C30.5335 0.246984 30.5462 0.208984 30.5715 0.208984H38.0955C38.2095 0.208984 38.2665 0.265984 38.2665 0.379983L38.3045 2.67898C38.3045 2.71698 38.2665 2.73598 38.1905 2.73598C38.1272 2.73598 38.0955 2.71698 38.0955 2.67898C38.0955 2.02032 37.9245 1.50732 37.5825 1.13998C37.2405 0.759984 36.7909 0.569984 36.2335 0.569984H34.9225C34.4539 0.569984 34.0992 0.601651 33.8585 0.664984C33.6305 0.728317 33.4722 0.854984 33.3835 1.04498C33.3075 1.22232 33.2695 1.49465 33.2695 1.86198V10.469C33.2695 10.8237 33.3075 11.0897 33.3835 11.267C33.4722 11.4443 33.6305 11.5647 33.8585 11.628C34.0992 11.6913 34.4539 11.723 34.9225 11.723H36.6705C37.1772 11.723 37.6142 11.5013 37.9815 11.058C38.3489 10.6147 38.5769 10.032 38.6655 9.30998C38.6655 9.27198 38.7035 9.25932 38.7795 9.27198C38.8555 9.27198 38.8935 9.29098 38.8935 9.32898C38.8429 9.65832 38.7985 10.0573 38.7605 10.526C38.7352 10.982 38.7225 11.4063 38.7225 11.799C38.7225 11.989 38.6212 12.084 38.4185 12.084ZM37.3545 7.61898C37.3545 7.04898 37.2342 6.64998 36.9935 6.42198C36.7529 6.19398 36.3285 6.07998 35.7205 6.07998H32.7945V5.71898H35.7775C36.3602 5.71898 36.7655 5.62398 36.9935 5.43398C37.2215 5.23132 37.3355 4.88932 37.3355 4.40798C37.3355 4.38265 37.3735 4.36998 37.4495 4.36998C37.5255 4.36998 37.5635 4.38265 37.5635 4.40798C37.5635 4.77532 37.5572 5.06032 37.5445 5.26298C37.5445 5.46565 37.5445 5.68098 37.5445 5.90898C37.5445 6.18765 37.5509 6.46632 37.5635 6.74498C37.5762 7.01098 37.5825 7.30232 37.5825 7.61898C37.5825 7.64432 37.5445 7.65698 37.4685 7.65698C37.3925 7.65698 37.3545 7.64432 37.3545 7.61898ZM45.9464 10.108L46.1364 0.645983L46.5544 0.683984L46.3834 10.108C46.3707 10.754 46.4721 11.21 46.6874 11.476C46.9154 11.7293 47.3461 11.856 47.9794 11.856C48.0047 11.856 48.0174 11.894 48.0174 11.97C48.0174 12.046 48.0047 12.084 47.9794 12.084C47.7007 12.084 47.4094 12.0777 47.1054 12.065C46.8141 12.0523 46.4911 12.046 46.1364 12.046C45.8324 12.046 45.5411 12.0523 45.2624 12.065C44.9837 12.0777 44.7177 12.084 44.4644 12.084C44.4391 12.084 44.4264 12.046 44.4264 11.97C44.4264 11.894 44.4391 11.856 44.4644 11.856C44.9964 11.856 45.3701 11.7293 45.5854 11.476C45.8134 11.21 45.9337 10.754 45.9464 10.108ZM58.9994 11.856C59.0374 11.856 59.0564 11.894 59.0564 11.97C59.0564 12.046 59.0374 12.084 58.9994 12.084C58.6954 12.084 58.3534 12.0777 57.9734 12.065C57.6061 12.0523 57.2134 12.046 56.7954 12.046C56.4027 12.046 56.0417 12.0523 55.7124 12.065C55.3831 12.0777 55.0854 12.084 54.8194 12.084C54.7941 12.084 54.7814 12.046 54.7814 11.97C54.7814 11.894 54.7941 11.856 54.8194 11.856C55.4527 11.856 55.8581 11.7737 56.0354 11.609C56.2254 11.4443 56.3077 11.0897 56.2824 10.545L55.9404 1.17798L56.4914 0.474984L51.5134 11.951C51.5007 12.0017 51.4501 12.027 51.3614 12.027C51.2727 12.027 51.2157 12.0017 51.1904 11.951L46.5544 1.78598C46.1491 0.88665 45.4967 0.436984 44.5974 0.436984C44.5721 0.436984 44.5594 0.398984 44.5594 0.322984C44.5594 0.246984 44.5721 0.208984 44.5974 0.208984C44.7874 0.208984 44.9901 0.215318 45.2054 0.227984C45.4207 0.240651 45.5981 0.246984 45.7374 0.246984C45.9147 0.246984 46.0794 0.240651 46.2314 0.227984C46.3834 0.215318 46.4974 0.208984 46.5734 0.208984C46.7507 0.208984 46.8901 0.265984 46.9914 0.379983C47.0927 0.493983 47.2447 0.766317 47.4474 1.19698L51.7984 10.602L51.3044 11.4L55.9784 0.683984C56.0417 0.544651 56.1241 0.430651 56.2254 0.341984C56.3394 0.253318 56.4471 0.208984 56.5484 0.208984C56.6117 0.208984 56.7067 0.215318 56.8334 0.227984C56.9601 0.240651 57.1057 0.246984 57.2704 0.246984C57.5997 0.246984 57.8657 0.240651 58.0684 0.227984C58.2711 0.215318 58.4864 0.208984 58.7144 0.208984C58.7397 0.208984 58.7524 0.246984 58.7524 0.322984C58.7524 0.398984 58.7397 0.436984 58.7144 0.436984C58.0937 0.436984 57.6377 0.519317 57.3464 0.683984C57.0551 0.835984 56.9157 1.17798 56.9284 1.70998L57.2894 10.545C57.3021 10.9123 57.3464 11.191 57.4224 11.381C57.5111 11.571 57.6757 11.6977 57.9164 11.761C58.1571 11.8243 58.5181 11.856 58.9994 11.856ZM66.8859 10.545C66.8859 10.9123 66.9239 11.191 66.9999 11.381C67.0759 11.571 67.2342 11.6977 67.4749 11.761C67.7282 11.8243 68.0955 11.856 68.5769 11.856C68.6022 11.856 68.6149 11.894 68.6149 11.97C68.6149 12.046 68.6022 12.084 68.5769 12.084C68.2729 12.084 67.9372 12.0777 67.5699 12.065C67.2025 12.0523 66.7972 12.046 66.3539 12.046C65.9359 12.046 65.5369 12.0523 65.1569 12.065C64.7895 12.0777 64.4539 12.084 64.1499 12.084C64.1119 12.084 64.0929 12.046 64.0929 11.97C64.0929 11.894 64.1119 11.856 64.1499 11.856C64.6312 11.856 64.9922 11.8243 65.2329 11.761C65.4862 11.6977 65.6509 11.571 65.7269 11.381C65.8155 11.191 65.8599 10.9123 65.8599 10.545V1.74798C65.8599 1.38065 65.8155 1.10832 65.7269 0.930984C65.6509 0.740984 65.4862 0.614317 65.2329 0.550983C64.9922 0.474984 64.6312 0.436984 64.1499 0.436984C64.1119 0.436984 64.0929 0.398984 64.0929 0.322984C64.0929 0.246984 64.1119 0.208984 64.1499 0.208984C64.4539 0.208984 64.7895 0.221651 65.1569 0.246984C65.5369 0.25965 65.9359 0.265984 66.3539 0.265984C66.7972 0.265984 67.2025 0.25965 67.5699 0.246984C67.9499 0.221651 68.2855 0.208984 68.5769 0.208984C68.6022 0.208984 68.6149 0.246984 68.6149 0.322984C68.6149 0.398984 68.6022 0.436984 68.5769 0.436984C68.0955 0.436984 67.7345 0.474984 67.4939 0.550983C67.2532 0.626984 67.0885 0.759984 66.9999 0.949984C66.9239 1.13998 66.8859 1.41865 66.8859 1.78598V10.545ZM81.9924 12.084H74.1454C74.12 12.084 74.1074 12.046 74.1074 11.97C74.1074 11.894 74.12 11.856 74.1454 11.856C74.6267 11.856 74.9877 11.8243 75.2284 11.761C75.469 11.6977 75.6274 11.571 75.7034 11.381C75.792 11.191 75.8364 10.9123 75.8364 10.545V1.74798C75.8364 1.38065 75.792 1.10832 75.7034 0.930984C75.6274 0.740984 75.469 0.614317 75.2284 0.550983C74.9877 0.474984 74.6267 0.436984 74.1454 0.436984C74.12 0.436984 74.1074 0.398984 74.1074 0.322984C74.1074 0.246984 74.12 0.208984 74.1454 0.208984H81.6694C81.7834 0.208984 81.8404 0.265984 81.8404 0.379983L81.8784 2.67898C81.8784 2.71698 81.8404 2.73598 81.7644 2.73598C81.701 2.73598 81.6694 2.71698 81.6694 2.67898C81.6694 2.02032 81.4984 1.50732 81.1564 1.13998C80.8144 0.759984 80.3647 0.569984 79.8074 0.569984H78.4964C78.0277 0.569984 77.673 0.601651 77.4324 0.664984C77.2044 0.728317 77.046 0.854984 76.9574 1.04498C76.8814 1.22232 76.8434 1.49465 76.8434 1.86198V10.469C76.8434 10.8237 76.8814 11.0897 76.9574 11.267C77.046 11.4443 77.2044 11.5647 77.4324 11.628C77.673 11.6913 78.0277 11.723 78.4964 11.723H80.2444C80.751 11.723 81.188 11.5013 81.5554 11.058C81.9227 10.6147 82.1507 10.032 82.2394 9.30998C82.2394 9.27198 82.2774 9.25932 82.3534 9.27198C82.4294 9.27198 82.4674 9.29098 82.4674 9.32898C82.4167 9.65832 82.3724 10.0573 82.3344 10.526C82.309 10.982 82.2964 11.4063 82.2964 11.799C82.2964 11.989 82.195 12.084 81.9924 12.084ZM80.9284 7.61898C80.9284 7.04898 80.808 6.64998 80.5674 6.42198C80.3267 6.19398 79.9024 6.07998 79.2944 6.07998H76.3684V5.71898H79.3514C79.934 5.71898 80.3394 5.62398 80.5674 5.43398C80.7954 5.23132 80.9094 4.88932 80.9094 4.40798C80.9094 4.38265 80.9474 4.36998 81.0234 4.36998C81.0994 4.36998 81.1374 4.38265 81.1374 4.40798C81.1374 4.77532 81.131 5.06032 81.1184 5.26298C81.1184 5.46565 81.1184 5.68098 81.1184 5.90898C81.1184 6.18765 81.1247 6.46632 81.1374 6.74498C81.15 7.01098 81.1564 7.30232 81.1564 7.61898C81.1564 7.64432 81.1184 7.65698 81.0424 7.65698C80.9664 7.65698 80.9284 7.64432 80.9284 7.61898ZM97.8802 12.084C97.6649 12.084 97.3102 11.837 96.8162 11.343C96.3222 10.849 95.7269 10.146 95.0302 9.23398C94.3336 8.30932 93.5546 7.21998 92.6932 5.96598L93.6052 5.68098C94.6946 7.21365 95.6192 8.43598 96.3792 9.34798C97.1392 10.2473 97.8106 10.8933 98.3932 11.286C98.9759 11.666 99.5396 11.856 100.084 11.856C100.122 11.856 100.141 11.894 100.141 11.97C100.141 12.046 100.122 12.084 100.084 12.084C99.5142 12.084 99.0456 12.084 98.6782 12.084C98.3236 12.084 98.0576 12.084 97.8802 12.084ZM92.9212 0.151984C93.8966 0.151984 94.6376 0.386317 95.1442 0.854984C95.6636 1.32365 95.9232 1.93165 95.9232 2.67898C95.9232 3.35032 95.7269 3.95832 95.3342 4.50298C94.9416 5.04765 94.4159 5.47832 93.7572 5.79498C93.1112 6.11165 92.3956 6.26998 91.6102 6.26998C91.4962 6.26998 91.3632 6.26365 91.2112 6.25098C91.0592 6.23832 90.9199 6.22565 90.7932 6.21298V10.545C90.7932 10.9123 90.8312 11.191 90.9072 11.381C90.9832 11.571 91.1416 11.6977 91.3822 11.761C91.6356 11.8243 92.0029 11.856 92.4842 11.856C92.5222 11.856 92.5412 11.894 92.5412 11.97C92.5412 12.046 92.5222 12.084 92.4842 12.084C92.1802 12.084 91.8446 12.0777 91.4772 12.065C91.1226 12.0523 90.7236 12.046 90.2802 12.046C89.8749 12.046 89.4822 12.0523 89.1022 12.065C88.7222 12.0777 88.3802 12.084 88.0762 12.084C88.0509 12.084 88.0382 12.046 88.0382 11.97C88.0382 11.894 88.0509 11.856 88.0762 11.856C88.5576 11.856 88.9186 11.8243 89.1592 11.761C89.4126 11.6977 89.5836 11.571 89.6722 11.381C89.7609 11.191 89.8052 10.9123 89.8052 10.545V1.74798C89.8052 1.38065 89.7609 1.10832 89.6722 0.930984C89.5962 0.740984 89.4379 0.614317 89.1972 0.550983C88.9566 0.474984 88.5956 0.436984 88.1142 0.436984C88.0762 0.436984 88.0572 0.398984 88.0572 0.322984C88.0572 0.246984 88.0762 0.208984 88.1142 0.208984C88.4056 0.208984 88.7349 0.221651 89.1022 0.246984C89.4822 0.25965 89.8749 0.265984 90.2802 0.265984C90.6729 0.265984 91.1289 0.246984 91.6482 0.208984C92.1676 0.170984 92.5919 0.151984 92.9212 0.151984ZM94.8592 3.19198C94.8592 2.50798 94.7452 1.96332 94.5172 1.55798C94.3019 1.15265 93.9852 0.861317 93.5672 0.683984C93.1619 0.493984 92.6679 0.398984 92.0852 0.398984C91.6292 0.398984 91.2999 0.481317 91.0972 0.645983C90.8946 0.81065 90.7932 1.19065 90.7932 1.78598V5.77598C90.9706 5.78865 91.1606 5.80132 91.3632 5.81398C91.5786 5.82665 91.7686 5.83298 91.9332 5.83298C93.0226 5.83298 93.7826 5.60498 94.2132 5.14898C94.6439 4.69298 94.8592 4.04065 94.8592 3.19198ZM115.5 10.469C115.5 10.849 115.551 11.1403 115.652 11.343C115.766 11.533 115.994 11.666 116.336 11.742C116.678 11.818 117.191 11.856 117.875 11.856C117.913 11.856 117.932 11.894 117.932 11.97C117.932 12.046 117.913 12.084 117.875 12.084C117.47 12.084 117.027 12.0777 116.545 12.065C116.077 12.0523 115.564 12.046 115.006 12.046C114.601 12.046 114.208 12.0523 113.828 12.065C113.448 12.0777 113.106 12.084 112.802 12.084C112.777 12.084 112.764 12.046 112.764 11.97C112.764 11.894 112.777 11.856 112.802 11.856C113.284 11.856 113.645 11.8243 113.885 11.761C114.126 11.6977 114.284 11.571 114.36 11.381C114.449 11.191 114.493 10.9123 114.493 10.545V1.74798C114.493 1.38065 114.449 1.10832 114.36 0.930984C114.284 0.740984 114.126 0.614317 113.885 0.550983C113.645 0.474984 113.284 0.436984 112.802 0.436984C112.777 0.436984 112.764 0.398984 112.764 0.322984C112.764 0.246984 112.777 0.208984 112.802 0.208984C113.106 0.208984 113.442 0.221651 113.809 0.246984C114.189 0.25965 114.582 0.265984 114.987 0.265984C115.317 0.265984 115.716 0.246984 116.184 0.208984C116.653 0.170984 117.141 0.151984 117.647 0.151984C118.344 0.151984 118.977 0.259651 119.547 0.474984C120.117 0.690317 120.567 1.02598 120.896 1.48198C121.238 1.93798 121.409 2.53332 121.409 3.26798C121.409 3.93932 121.283 4.51565 121.029 4.99698C120.776 5.47832 120.44 5.87732 120.022 6.19398C119.617 6.49798 119.167 6.72598 118.673 6.87798C118.179 7.02998 117.692 7.10598 117.21 7.10598C117.046 7.10598 116.881 7.09965 116.716 7.08698C116.564 7.07432 116.419 7.04898 116.279 7.01098C116.229 6.99832 116.21 6.95398 116.222 6.87798C116.248 6.78932 116.279 6.75132 116.317 6.76398C116.431 6.78932 116.545 6.80832 116.659 6.82098C116.786 6.83365 116.9 6.83998 117.001 6.83998C117.559 6.83998 118.084 6.72598 118.578 6.49798C119.072 6.26998 119.471 5.92165 119.775 5.45298C120.079 4.97165 120.231 4.36998 120.231 3.64798C120.231 2.95132 120.092 2.36232 119.813 1.88098C119.547 1.39965 119.186 1.03232 118.73 0.778984C118.274 0.525651 117.768 0.398984 117.21 0.398984C116.754 0.398984 116.4 0.424318 116.146 0.474984C115.906 0.512984 115.735 0.626984 115.633 0.816983C115.545 1.00698 115.5 1.32998 115.5 1.78598V10.469ZM132.981 12.312C132.069 12.312 131.239 12.1537 130.492 11.837C129.757 11.5077 129.124 11.058 128.592 10.488C128.073 9.91798 127.667 9.26565 127.376 8.53098C127.097 7.78365 126.958 6.99198 126.958 6.15598C126.958 5.12998 127.154 4.23065 127.547 3.45798C127.952 2.68532 128.484 2.04565 129.143 1.53898C129.802 1.01965 130.524 0.633317 131.309 0.379983C132.094 0.12665 132.873 -1.63317e-05 133.646 -1.63317e-05C134.583 -1.63317e-05 135.419 0.170984 136.154 0.512984C136.901 0.842317 137.535 1.29198 138.054 1.86198C138.573 2.43198 138.966 3.07798 139.232 3.79998C139.511 4.52198 139.65 5.26298 139.65 6.02298C139.65 6.90965 139.473 7.73298 139.118 8.49298C138.763 9.25298 138.276 9.91798 137.655 10.488C137.047 11.058 136.338 11.5077 135.527 11.837C134.729 12.1537 133.88 12.312 132.981 12.312ZM133.665 11.932C134.552 11.932 135.356 11.7293 136.078 11.324C136.8 10.906 137.37 10.298 137.788 9.49998C138.219 8.68932 138.434 7.70765 138.434 6.55498C138.434 5.35165 138.2 4.29398 137.731 3.38198C137.275 2.45732 136.629 1.73532 135.793 1.21598C134.957 0.683984 133.975 0.417984 132.848 0.417984C131.379 0.417984 130.232 0.873984 129.409 1.78598C128.586 2.69798 128.174 3.93932 128.174 5.50998C128.174 6.39665 128.301 7.23265 128.554 8.01798C128.82 8.79065 129.194 9.47465 129.675 10.07C130.169 10.6527 130.752 11.1087 131.423 11.438C132.094 11.7673 132.842 11.932 133.665 11.932ZM147.756 1.76698V10.469C147.756 10.8237 147.794 11.0897 147.87 11.267C147.958 11.4443 148.117 11.5647 148.345 11.628C148.585 11.6913 148.934 11.723 149.39 11.723H151.822C152.493 11.723 153.006 11.5013 153.361 11.058C153.715 10.6147 153.943 10.032 154.045 9.30998C154.045 9.27198 154.076 9.25932 154.14 9.27198C154.216 9.27198 154.254 9.29098 154.254 9.32898C154.216 9.65832 154.178 10.0573 154.14 10.526C154.102 10.982 154.083 11.4063 154.083 11.799C154.083 11.989 153.988 12.084 153.798 12.084H145.058C145.032 12.084 145.02 12.046 145.02 11.97C145.02 11.894 145.032 11.856 145.058 11.856C145.539 11.856 145.9 11.8243 146.141 11.761C146.381 11.6977 146.54 11.571 146.616 11.381C146.704 11.191 146.749 10.9123 146.749 10.545V1.74798C146.749 1.38065 146.704 1.10832 146.616 0.930984C146.54 0.740984 146.381 0.614317 146.141 0.550983C145.9 0.474984 145.539 0.436984 145.058 0.436984C145.032 0.436984 145.02 0.398984 145.02 0.322984C145.02 0.246984 145.032 0.208984 145.058 0.208984C145.362 0.208984 145.697 0.221651 146.065 0.246984C146.445 0.25965 146.837 0.265984 147.243 0.265984C147.673 0.265984 148.072 0.25965 148.44 0.246984C148.82 0.221651 149.155 0.208984 149.447 0.208984C149.472 0.208984 149.485 0.246984 149.485 0.322984C149.485 0.398984 149.472 0.436984 149.447 0.436984C148.965 0.436984 148.604 0.474984 148.364 0.550983C148.123 0.614317 147.958 0.740984 147.87 0.930984C147.794 1.12098 147.756 1.39965 147.756 1.76698ZM163.447 6.57398L166.411 2.08998C166.765 1.53265 166.892 1.12098 166.791 0.854984C166.689 0.576317 166.36 0.436984 165.803 0.436984C165.777 0.436984 165.765 0.398984 165.765 0.322984C165.765 0.246984 165.777 0.208984 165.803 0.208984C166.132 0.208984 166.449 0.221651 166.753 0.246984C167.057 0.25965 167.449 0.265984 167.931 0.265984C168.247 0.265984 168.501 0.25965 168.691 0.246984C168.893 0.221651 169.134 0.208984 169.413 0.208984C169.438 0.208984 169.451 0.246984 169.451 0.322984C169.451 0.398984 169.438 0.436984 169.413 0.436984C169.096 0.436984 168.786 0.50665 168.482 0.645983C168.178 0.772651 167.886 0.962651 167.608 1.21598C167.342 1.46932 167.088 1.77965 166.848 2.14698L163.751 6.83998L163.447 6.57398ZM163.466 6.93498L159.913 1.78598C159.583 1.29198 159.26 0.943651 158.944 0.740984C158.627 0.538317 158.234 0.436984 157.766 0.436984C157.728 0.436984 157.709 0.398984 157.709 0.322984C157.709 0.246984 157.728 0.208984 157.766 0.208984C157.981 0.208984 158.209 0.221651 158.45 0.246984C158.703 0.25965 158.937 0.265984 159.153 0.265984C159.495 0.265984 159.811 0.265984 160.103 0.265984C160.407 0.253317 160.692 0.240651 160.958 0.227984C161.224 0.215318 161.464 0.208984 161.68 0.208984C161.705 0.208984 161.718 0.246984 161.718 0.322984C161.718 0.398984 161.705 0.436984 161.68 0.436984C161.16 0.436984 160.831 0.493984 160.692 0.607984C160.552 0.721984 160.584 0.918317 160.787 1.19698L164.169 6.06098L163.466 6.93498ZM163.162 6.19398L164.169 6.02298V10.545C164.169 10.9123 164.207 11.191 164.283 11.381C164.359 11.571 164.517 11.6977 164.758 11.761C164.998 11.8243 165.359 11.856 165.841 11.856C165.879 11.856 165.898 11.894 165.898 11.97C165.898 12.046 165.879 12.084 165.841 12.084C165.549 12.084 165.22 12.0777 164.853 12.065C164.485 12.0523 164.086 12.046 163.656 12.046C163.238 12.046 162.839 12.0523 162.459 12.065C162.079 12.0777 161.743 12.084 161.452 12.084C161.414 12.084 161.395 12.046 161.395 11.97C161.395 11.894 161.414 11.856 161.452 11.856C161.933 11.856 162.294 11.8243 162.535 11.761C162.788 11.6977 162.953 11.571 163.029 11.381C163.117 11.191 163.162 10.9123 163.162 10.545V6.19398ZM180.321 -1.63317e-05C180.891 -1.63317e-05 181.379 0.0253171 181.784 0.0759838C182.202 0.126651 182.588 0.215317 182.943 0.341984C183.298 0.455984 183.671 0.614317 184.064 0.816983C184.14 0.86765 184.184 0.911984 184.197 0.949984C184.222 0.975317 184.241 1.07032 184.254 1.23498L184.482 3.40098C184.482 3.42632 184.444 3.45165 184.368 3.47698C184.305 3.48965 184.267 3.47065 184.254 3.41998C183.975 2.36865 183.513 1.58332 182.867 1.06398C182.234 0.531984 181.385 0.265984 180.321 0.265984C179.194 0.265984 178.212 0.500317 177.376 0.968984C176.54 1.43765 175.888 2.10265 175.419 2.96398C174.963 3.82532 174.735 4.83865 174.735 6.00398C174.735 6.82732 174.881 7.60632 175.172 8.34098C175.476 9.07565 175.888 9.72165 176.407 10.279C176.939 10.8363 177.541 11.2733 178.212 11.59C178.883 11.9067 179.599 12.065 180.359 12.065C181.448 12.065 182.322 11.8053 182.981 11.286C183.64 10.754 184.108 9.98132 184.387 8.96798C184.4 8.92998 184.438 8.91732 184.501 8.92998C184.577 8.94265 184.615 8.96165 184.615 8.98698L184.463 11.001C184.45 11.153 184.431 11.248 184.406 11.286C184.381 11.324 184.33 11.3683 184.254 11.419C183.583 11.7737 182.956 12.0143 182.373 12.141C181.803 12.2677 181.125 12.331 180.34 12.331C179.01 12.331 177.832 12.0713 176.806 11.552C175.78 11.02 174.976 10.279 174.393 9.32898C173.81 8.37898 173.519 7.27698 173.519 6.02298C173.519 5.11098 173.684 4.28765 174.013 3.55298C174.355 2.81832 174.83 2.18498 175.438 1.65298C176.059 1.12098 176.781 0.715651 177.604 0.436984C178.427 0.14565 179.333 -1.63317e-05 180.321 -1.63317e-05ZM192.814 1.76698V10.469C192.814 10.8237 192.852 11.0897 192.928 11.267C193.017 11.4443 193.175 11.5647 193.403 11.628C193.644 11.6913 193.992 11.723 194.448 11.723H196.88C197.551 11.723 198.064 11.5013 198.419 11.058C198.774 10.6147 199.002 10.032 199.103 9.30998C199.103 9.27198 199.135 9.25932 199.198 9.27198C199.274 9.27198 199.312 9.29098 199.312 9.32898C199.274 9.65832 199.236 10.0573 199.198 10.526C199.16 10.982 199.141 11.4063 199.141 11.799C199.141 11.989 199.046 12.084 198.856 12.084H190.116C190.091 12.084 190.078 12.046 190.078 11.97C190.078 11.894 190.091 11.856 190.116 11.856C190.597 11.856 190.958 11.8243 191.199 11.761C191.44 11.6977 191.598 11.571 191.674 11.381C191.763 11.191 191.807 10.9123 191.807 10.545V1.74798C191.807 1.38065 191.763 1.10832 191.674 0.930984C191.598 0.740984 191.44 0.614317 191.199 0.550983C190.958 0.474984 190.597 0.436984 190.116 0.436984C190.091 0.436984 190.078 0.398984 190.078 0.322984C190.078 0.246984 190.091 0.208984 190.116 0.208984C190.42 0.208984 190.756 0.221651 191.123 0.246984C191.503 0.25965 191.896 0.265984 192.301 0.265984C192.732 0.265984 193.131 0.25965 193.498 0.246984C193.878 0.221651 194.214 0.208984 194.505 0.208984C194.53 0.208984 194.543 0.246984 194.543 0.322984C194.543 0.398984 194.53 0.436984 194.505 0.436984C194.024 0.436984 193.663 0.474984 193.422 0.550983C193.181 0.614317 193.017 0.740984 192.928 0.930984C192.852 1.12098 192.814 1.39965 192.814 1.76698ZM206.955 10.545C206.955 10.9123 206.993 11.191 207.069 11.381C207.145 11.571 207.304 11.6977 207.544 11.761C207.798 11.8243 208.165 11.856 208.646 11.856C208.672 11.856 208.684 11.894 208.684 11.97C208.684 12.046 208.672 12.084 208.646 12.084C208.342 12.084 208.007 12.0777 207.639 12.065C207.272 12.0523 206.867 12.046 206.423 12.046C206.005 12.046 205.606 12.0523 205.226 12.065C204.859 12.0777 204.523 12.084 204.219 12.084C204.181 12.084 204.162 12.046 204.162 11.97C204.162 11.894 204.181 11.856 204.219 11.856C204.701 11.856 205.062 11.8243 205.302 11.761C205.556 11.6977 205.72 11.571 205.796 11.381C205.885 11.191 205.929 10.9123 205.929 10.545V1.74798C205.929 1.38065 205.885 1.10832 205.796 0.930984C205.72 0.740984 205.556 0.614317 205.302 0.550983C205.062 0.474984 204.701 0.436984 204.219 0.436984C204.181 0.436984 204.162 0.398984 204.162 0.322984C204.162 0.246984 204.181 0.208984 204.219 0.208984C204.523 0.208984 204.859 0.221651 205.226 0.246984C205.606 0.25965 206.005 0.265984 206.423 0.265984C206.867 0.265984 207.272 0.25965 207.639 0.246984C208.019 0.221651 208.355 0.208984 208.646 0.208984C208.672 0.208984 208.684 0.246984 208.684 0.322984C208.684 0.398984 208.672 0.436984 208.646 0.436984C208.165 0.436984 207.804 0.474984 207.563 0.550983C207.323 0.626984 207.158 0.759984 207.069 0.949984C206.993 1.13998 206.955 1.41865 206.955 1.78598V10.545ZM215.621 10.108V0.645983L216.039 0.683984V10.108C216.039 10.754 216.146 11.21 216.362 11.476C216.577 11.7293 216.951 11.856 217.483 11.856C217.521 11.856 217.54 11.894 217.54 11.97C217.54 12.046 217.521 12.084 217.483 12.084C217.242 12.084 216.989 12.0777 216.723 12.065C216.469 12.0523 216.184 12.046 215.868 12.046C215.564 12.046 215.272 12.0523 214.994 12.065C214.715 12.0777 214.449 12.084 214.196 12.084C214.17 12.084 214.158 12.046 214.158 11.97C214.158 11.894 214.17 11.856 214.196 11.856C214.753 11.856 215.127 11.7293 215.317 11.476C215.519 11.21 215.621 10.754 215.621 10.108ZM225.178 12.293C225.178 12.3183 225.146 12.331 225.083 12.331C225.019 12.3437 224.975 12.3437 224.95 12.331L216.362 1.76698C215.931 1.24765 215.545 0.899317 215.203 0.721983C214.873 0.531984 214.557 0.436984 214.253 0.436984C214.215 0.436984 214.196 0.398984 214.196 0.322984C214.196 0.246984 214.215 0.208984 214.253 0.208984C214.468 0.208984 214.69 0.215318 214.918 0.227984C215.146 0.240651 215.348 0.246984 215.526 0.246984C215.703 0.246984 215.868 0.240651 216.02 0.227984C216.184 0.215318 216.305 0.208984 216.381 0.208984C216.545 0.208984 216.659 0.284984 216.723 0.436984C216.786 0.576317 216.963 0.82965 217.255 1.19698L225.026 10.849L225.178 12.293ZM225.178 2.20398V12.293L224.76 11.704V2.20398C224.76 1.55798 224.658 1.10198 224.456 0.835984C224.253 0.569984 223.886 0.436984 223.354 0.436984C223.328 0.436984 223.316 0.398984 223.316 0.322984C223.316 0.246984 223.328 0.208984 223.354 0.208984C223.607 0.208984 223.86 0.221651 224.114 0.246984C224.38 0.25965 224.671 0.265984 224.988 0.265984C225.279 0.265984 225.57 0.25965 225.862 0.246984C226.153 0.221651 226.419 0.208984 226.66 0.208984C226.698 0.208984 226.717 0.246984 226.717 0.322984C226.717 0.398984 226.698 0.436984 226.66 0.436984C226.115 0.436984 225.729 0.569984 225.501 0.835984C225.285 1.10198 225.178 1.55798 225.178 2.20398ZM234.594 10.545C234.594 10.9123 234.632 11.191 234.708 11.381C234.784 11.571 234.943 11.6977 235.183 11.761C235.437 11.8243 235.804 11.856 236.285 11.856C236.311 11.856 236.323 11.894 236.323 11.97C236.323 12.046 236.311 12.084 236.285 12.084C235.981 12.084 235.646 12.0777 235.278 12.065C234.911 12.0523 234.506 12.046 234.062 12.046C233.644 12.046 233.245 12.0523 232.865 12.065C232.498 12.0777 232.162 12.084 231.858 12.084C231.82 12.084 231.801 12.046 231.801 11.97C231.801 11.894 231.82 11.856 231.858 11.856C232.34 11.856 232.701 11.8243 232.941 11.761C233.195 11.6977 233.359 11.571 233.435 11.381C233.524 11.191 233.568 10.9123 233.568 10.545V1.74798C233.568 1.38065 233.524 1.10832 233.435 0.930984C233.359 0.740984 233.195 0.614317 232.941 0.550983C232.701 0.474984 232.34 0.436984 231.858 0.436984C231.82 0.436984 231.801 0.398984 231.801 0.322984C231.801 0.246984 231.82 0.208984 231.858 0.208984C232.162 0.208984 232.498 0.221651 232.865 0.246984C233.245 0.25965 233.644 0.265984 234.062 0.265984C234.506 0.265984 234.911 0.25965 235.278 0.246984C235.658 0.221651 235.994 0.208984 236.285 0.208984C236.311 0.208984 236.323 0.246984 236.323 0.322984C236.323 0.398984 236.311 0.436984 236.285 0.436984C235.804 0.436984 235.443 0.474984 235.202 0.550983C234.962 0.626984 234.797 0.759984 234.708 0.949984C234.632 1.13998 234.594 1.41865 234.594 1.78598V10.545ZM248.751 -1.63317e-05C249.321 -1.63317e-05 249.808 0.0253171 250.214 0.0759838C250.632 0.126651 251.018 0.215317 251.373 0.341984C251.727 0.455984 252.101 0.614317 252.494 0.816983C252.57 0.86765 252.614 0.911984 252.627 0.949984C252.652 0.975317 252.671 1.07032 252.684 1.23498L252.912 3.40098C252.912 3.42632 252.874 3.45165 252.798 3.47698C252.734 3.48965 252.696 3.47065 252.684 3.41998C252.405 2.36865 251.943 1.58332 251.297 1.06398C250.663 0.531984 249.815 0.265984 248.751 0.265984C247.623 0.265984 246.642 0.500317 245.806 0.968984C244.97 1.43765 244.317 2.10265 243.849 2.96398C243.393 3.82532 243.165 4.83865 243.165 6.00398C243.165 6.82732 243.31 7.60632 243.602 8.34098C243.906 9.07565 244.317 9.72165 244.837 10.279C245.369 10.8363 245.97 11.2733 246.642 11.59C247.313 11.9067 248.029 12.065 248.789 12.065C249.878 12.065 250.752 11.8053 251.411 11.286C252.069 10.754 252.538 9.98132 252.817 8.96798C252.829 8.92998 252.867 8.91732 252.931 8.92998C253.007 8.94265 253.045 8.96165 253.045 8.98698L252.893 11.001C252.88 11.153 252.861 11.248 252.836 11.286C252.81 11.324 252.76 11.3683 252.684 11.419C252.012 11.7737 251.385 12.0143 250.803 12.141C250.233 12.2677 249.555 12.331 248.77 12.331C247.44 12.331 246.262 12.0713 245.236 11.552C244.21 11.02 243.405 10.279 242.823 9.32898C242.24 8.37898 241.949 7.27698 241.949 6.02298C241.949 5.11098 242.113 4.28765 242.443 3.55298C242.785 2.81832 243.26 2.18498 243.868 1.65298C244.488 1.12098 245.21 0.715651 246.034 0.436984C246.857 0.14565 247.763 -1.63317e-05 248.751 -1.63317e-05Z" fill="#7B5E3A"/>
</svg>
